<svg width="50" height="50" viewBox="0 0 50 50" fill="none" xmlns="http://www.w3.org/2000/svg">
<g clip-path="url(#clip0_0_342)">
<path d="M46.8403 42.8088L46.8407 42.8097C46.8522 42.8345 46.8551 42.8497 46.8559 42.8566C46.8569 42.8639 46.8567 42.8704 46.8554 42.8775C46.8525 42.8935 46.8419 42.9213 46.8158 42.9497C46.7897 42.9782 46.7632 42.9908 46.7483 42.9949C46.7417 42.9967 46.7358 42.9974 46.7291 42.9971C46.7228 42.9969 46.7081 42.9955 46.6833 42.9864L46.6796 42.9851L39.9213 40.5248L39.3374 40.3123L38.7743 40.5749L38.2673 40.8113L37.7042 41.0738L37.4917 41.6576L35.0314 48.4158L35.0311 48.4167C35.0216 48.4429 35.0125 48.4562 35.0079 48.4621C35.0031 48.4684 34.9981 48.473 34.9921 48.4772C34.9787 48.4865 34.9523 48.4982 34.9153 48.4999C34.8783 48.5015 34.8517 48.4923 34.8382 48.4845C34.8321 48.4811 34.8268 48.477 34.8214 48.4711C34.8162 48.4655 34.8057 48.4526 34.7934 48.4264L34.7932 48.4259L30.7851 39.831C35.2625 38.6502 39.2014 36.1403 42.1458 32.7419L46.8403 42.8088Z" stroke="url(#paint0_linear_0_342)" stroke-width="3"/>
<path d="M34.7679 17.6787L34.7678 17.6788L32.1547 20.2261L32.7722 23.8239C32.7722 23.824 32.7722 23.8241 32.7722 23.8242C33.2152 26.4029 30.5034 28.3143 28.2329 27.1236L28.2316 27.123L25.0007 25.4246L21.7698 27.1229L21.7692 27.1232C19.4783 28.3261 16.7897 26.3807 17.2292 23.8237L17.8467 20.226L15.2336 17.6787L15.2336 17.6786C13.3765 15.8681 14.4065 12.7135 16.9678 12.3413L16.9679 12.3413L20.5798 11.8166L22.1942 8.54589C22.1944 8.54556 22.1946 8.54522 22.1947 8.54488L22.1952 8.54398L23.5402 9.20791C24.1347 7.99932 25.8663 7.99824 26.4614 9.20791L34.7679 17.6787ZM34.7679 17.6787C36.6245 15.8685 35.5956 12.7134 33.0338 12.3413L33.0338 12.3413L29.4219 11.8166L34.7679 17.6787ZM8.5791 17.9215C8.5791 8.86801 15.9475 1.5 25.0006 1.5C34.0537 1.5 41.4221 8.868 41.4221 17.9215C41.4221 26.975 34.0536 34.343 25.0006 34.343C15.9476 34.343 8.5791 26.975 8.5791 17.9215Z" stroke="url(#paint1_linear_0_342)" stroke-width="3"/>
<path d="M3.16014 42.8088L7.85457 32.7419C10.7991 36.1403 14.7379 38.6502 19.2153 39.8309L15.2072 48.4259L15.2069 48.4263C15.1945 48.453 15.1838 48.466 15.1787 48.4716C15.1732 48.4775 15.168 48.4815 15.1622 48.4848C15.1492 48.4922 15.1229 48.5015 15.086 48.4998C15.049 48.4981 15.0222 48.4863 15.0083 48.4766C15.0021 48.4723 14.997 48.4675 14.9922 48.4612C14.9876 48.4553 14.9786 48.4422 14.9693 48.4164L14.969 48.4156L12.5087 41.6574L12.2962 41.0736L11.7331 40.811L11.2261 40.5746L10.663 40.312L10.0791 40.5245L3.32087 42.9848L3.32087 42.9848L3.31548 42.9868C3.29233 42.9953 3.27871 42.9965 3.27292 42.9968C3.26662 42.997 3.26067 42.9964 3.25367 42.9945C3.23776 42.9902 3.21049 42.977 3.18397 42.9482C3.15759 42.9196 3.14737 42.8924 3.14464 42.8774C3.14343 42.8708 3.1432 42.8647 3.14411 42.8576C3.14496 42.8509 3.14778 42.8353 3.15972 42.8097L3.16014 42.8088Z" stroke="url(#paint2_linear_0_342)" stroke-width="3"/>
</g>
<defs>
<linearGradient id="paint0_linear_0_342" x1="38.4951" y1="29.8787" x2="38.4951" y2="50.0001" gradientUnits="userSpaceOnUse">
<stop stop-color="#FFA800"/>
<stop offset="0.463542" stop-color="#FFCE6F"/>
<stop offset="1" stop-color="#FFA800"/>
</linearGradient>
<linearGradient id="paint1_linear_0_342" x1="25.0006" y1="0" x2="25.0006" y2="35.843" gradientUnits="userSpaceOnUse">
<stop stop-color="#FFA800"/>
<stop offset="0.463542" stop-color="#FFCE6F"/>
<stop offset="1" stop-color="#FFA800"/>
</linearGradient>
<linearGradient id="paint2_linear_0_342" x1="11.5051" y1="29.8787" x2="11.5051" y2="50" gradientUnits="userSpaceOnUse">
<stop stop-color="#FFA800"/>
<stop offset="0.463542" stop-color="#FFCE6F"/>
<stop offset="1" stop-color="#FFA800"/>
</linearGradient>
<clipPath id="clip0_0_342">
<rect width="50" height="50" fill="white"/>
</clipPath>
</defs>
</svg>
