<svg width="50" height="50" viewBox="0 0 50 50" fill="none" xmlns="http://www.w3.org/2000/svg">
<g clip-path="url(#clip0_0_379)">
<path d="M37.7625 29.7268C34.2872 29.7268 31.46 32.5541 31.46 36.0293C31.46 39.5046 34.2872 42.3319 37.7625 42.3319C41.2384 42.3319 44.065 39.5046 44.065 36.0293C44.065 32.5541 41.2378 29.7268 37.7625 29.7268ZM37.7625 39.1806C36.0246 39.1806 34.6112 37.7672 34.6112 36.0293C34.6112 34.2915 36.0246 32.8781 37.7625 32.8781C39.5004 32.8781 40.9138 34.2915 40.9138 36.0293C40.9138 37.7673 39.5004 39.1806 37.7625 39.1806Z" fill="url(#paint0_linear_0_379)"/>
<path d="M16.2288 29.7268C12.7535 29.7268 9.92627 32.5541 9.92627 36.0293C9.92627 39.5046 12.7535 42.3319 16.2288 42.3319C19.7041 42.3319 22.5313 39.5046 22.5313 36.0293C22.5313 32.5541 19.7041 29.7268 16.2288 29.7268ZM16.2288 39.1806C14.4909 39.1806 13.0775 37.7672 13.0775 36.0293C13.0775 34.2915 14.4909 32.8781 16.2288 32.8781C17.9662 32.8781 19.3801 34.2915 19.3801 36.0293C19.3801 37.7673 17.9667 39.1806 16.2288 39.1806Z" fill="url(#paint1_linear_0_379)"/>
<path d="M42.0067 11.687C41.7389 11.155 41.1942 10.8193 40.5986 10.8193H32.3003V13.9706H39.627L43.9174 22.5042L46.7336 21.0882L42.0067 11.687Z" fill="url(#paint2_linear_0_379)"/>
<path d="M33.0355 34.5063H21.1133V37.6576H33.0355V34.5063Z" fill="url(#paint3_linear_0_379)"/>
<path d="M11.5021 34.5063H6.03994C5.16963 34.5063 4.46436 35.2117 4.46436 36.0819C4.46436 36.9522 5.16973 37.6575 6.03994 37.6575H11.5021C12.3725 37.6575 13.0777 36.9521 13.0777 36.0819C13.0777 35.2116 12.3724 34.5063 11.5021 34.5063Z" fill="url(#paint4_linear_0_379)"/>
<path d="M49.6692 24.8739L46.57 20.8823C46.2722 20.4979 45.8126 20.2731 45.3257 20.2731H33.8761V9.24368C33.8761 8.37336 33.1707 7.66809 32.3005 7.66809H6.03994C5.16963 7.66809 4.46436 8.37346 4.46436 9.24368C4.46436 10.1139 5.16973 10.8193 6.03994 10.8193H30.7248V21.8487C30.7248 22.719 31.4302 23.4242 32.3004 23.4242H44.5541L46.8488 26.3801V34.5062H42.4895C41.6192 34.5062 40.9139 35.2115 40.9139 36.0818C40.9139 36.9521 41.6193 37.6573 42.4895 37.6573H48.4243C49.2947 37.6573 49.9999 36.952 50 36.0818V25.8404C50 25.4906 49.8834 25.1502 49.6692 24.8739Z" fill="url(#paint5_linear_0_379)"/>
<path d="M11.3973 26.5232H4.14932C3.279 26.5232 2.57373 27.2286 2.57373 28.0988C2.57373 28.9691 3.2791 29.6744 4.14932 29.6744H11.3972C12.2675 29.6744 12.9728 28.969 12.9728 28.0988C12.9729 27.2286 12.2675 26.5232 11.3973 26.5232Z" fill="url(#paint6_linear_0_379)"/>
<path d="M15.021 20.3256H1.57559C0.705371 20.3256 0 21.0309 0 21.9012C0 22.7716 0.705371 23.4768 1.57559 23.4768H15.021C15.8913 23.4768 16.5966 22.7715 16.5966 21.9012C16.5966 21.031 15.8913 20.3256 15.021 20.3256Z" fill="url(#paint7_linear_0_379)"/>
<path d="M17.5947 14.1282H4.14932C3.279 14.1282 2.57373 14.8335 2.57373 15.7038C2.57373 16.5741 3.2791 17.2793 4.14932 17.2793H17.5947C18.465 17.2793 19.1703 16.574 19.1703 15.7038C19.1704 14.8335 18.465 14.1282 17.5947 14.1282Z" fill="url(#paint8_linear_0_379)"/>
</g>
<defs>
<linearGradient id="paint0_linear_0_379" x1="37.7625" y1="29.7268" x2="37.7625" y2="42.3319" gradientUnits="userSpaceOnUse">
<stop stop-color="#FFA800"/>
<stop offset="0.494792" stop-color="#FFCE6F"/>
<stop offset="1" stop-color="#FFA800"/>
</linearGradient>
<linearGradient id="paint1_linear_0_379" x1="16.2288" y1="29.7268" x2="16.2288" y2="42.3319" gradientUnits="userSpaceOnUse">
<stop stop-color="#FFA800"/>
<stop offset="0.494792" stop-color="#FFCE6F"/>
<stop offset="1" stop-color="#FFA800"/>
</linearGradient>
<linearGradient id="paint2_linear_0_379" x1="39.5169" y1="10.8193" x2="39.5169" y2="22.5042" gradientUnits="userSpaceOnUse">
<stop stop-color="#FFA800"/>
<stop offset="0.494792" stop-color="#FFCE6F"/>
<stop offset="1" stop-color="#FFA800"/>
</linearGradient>
<linearGradient id="paint3_linear_0_379" x1="27.0744" y1="34.5063" x2="27.0744" y2="37.6576" gradientUnits="userSpaceOnUse">
<stop stop-color="#FFA800"/>
<stop offset="0.494792" stop-color="#FFCE6F"/>
<stop offset="1" stop-color="#FFA800"/>
</linearGradient>
<linearGradient id="paint4_linear_0_379" x1="8.77105" y1="34.5063" x2="8.77105" y2="37.6575" gradientUnits="userSpaceOnUse">
<stop stop-color="#FFA800"/>
<stop offset="0.494792" stop-color="#FFCE6F"/>
<stop offset="1" stop-color="#FFA800"/>
</linearGradient>
<linearGradient id="paint5_linear_0_379" x1="27.2322" y1="7.66809" x2="27.2322" y2="37.6573" gradientUnits="userSpaceOnUse">
<stop stop-color="#FFA800"/>
<stop offset="0.494792" stop-color="#FFCE6F"/>
<stop offset="1" stop-color="#FFA800"/>
</linearGradient>
<linearGradient id="paint6_linear_0_379" x1="7.77324" y1="26.5232" x2="7.77324" y2="29.6744" gradientUnits="userSpaceOnUse">
<stop stop-color="#FFA800"/>
<stop offset="0.494792" stop-color="#FFCE6F"/>
<stop offset="1" stop-color="#FFA800"/>
</linearGradient>
<linearGradient id="paint7_linear_0_379" x1="8.29829" y1="20.3256" x2="8.29829" y2="23.4768" gradientUnits="userSpaceOnUse">
<stop stop-color="#FFA800"/>
<stop offset="0.494792" stop-color="#FFCE6F"/>
<stop offset="1" stop-color="#FFA800"/>
</linearGradient>
<linearGradient id="paint8_linear_0_379" x1="10.872" y1="14.1282" x2="10.872" y2="17.2793" gradientUnits="userSpaceOnUse">
<stop stop-color="#FFA800"/>
<stop offset="0.494792" stop-color="#FFCE6F"/>
<stop offset="1" stop-color="#FFA800"/>
</linearGradient>
<clipPath id="clip0_0_379">
<rect width="50" height="50" fill="white"/>
</clipPath>
</defs>
</svg>
