<svg width="50" height="50" viewBox="0 0 50 50" fill="none" xmlns="http://www.w3.org/2000/svg">
<g clip-path="url(#clip0_0_355)">
<mask id="path-1-inside-1_0_355" fill="white">
<path d="M43.1434 21.3006L38.6835 17.5584L37.6726 11.825C37.5491 11.125 36.9408 10.6146 36.23 10.6146H30.408L25.9482 6.87212C25.4037 6.41519 24.6097 6.41519 24.0651 6.87212L19.6053 10.6144H13.7834C13.0726 10.6144 12.4643 11.1249 12.3408 11.8249L11.3299 17.5583L6.87003 21.3004C6.3254 21.7574 6.18761 22.5393 6.54298 23.155L9.45392 28.1969L8.44298 33.9304C8.31954 34.6304 8.71651 35.3181 9.38458 35.5613L14.8554 37.5525L17.7663 42.5944C18.1218 43.21 18.8678 43.4817 19.5358 43.2384L25.0066 41.2472L30.4774 43.2384C31.1321 43.4802 31.8913 43.2148 32.247 42.5944L35.1579 37.5525L40.6287 35.5613C41.2967 35.3181 41.6938 34.6305 41.5703 33.9304L40.5594 28.1969L43.4703 23.155C43.8259 22.5395 43.688 21.7576 43.1434 21.3006ZM30.4342 28.5957L26.065 33.0644C25.7899 33.3458 25.4131 33.5047 25.0194 33.5052C25.0189 33.5052 25.0183 33.5052 25.0176 33.5052C24.6246 33.5052 24.2482 33.3474 23.9728 33.067L19.5817 28.5983C19.0148 28.0212 19.0229 27.0938 19.5999 26.5268C20.1772 25.9597 21.1045 25.968 21.6714 26.545L23.5527 28.4596V17.8162C23.5527 17.0072 24.2086 16.3513 25.0176 16.3513C25.8266 16.3513 26.4824 17.0072 26.4824 17.8162V28.4468L28.3393 26.5476C28.9048 25.9692 29.8322 25.9586 30.4108 26.5243C30.9893 27.0897 30.9997 28.0171 30.4342 28.5957Z"/>
</mask>
<path d="M38.6835 17.5584L35.7291 18.0794L35.9187 19.1547L36.7552 19.8566L38.6835 17.5584ZM37.6726 11.825L34.7181 12.346L34.7181 12.346L37.6726 11.825ZM30.408 10.6146L28.4796 12.9127L29.316 13.6146H30.408V10.6146ZM25.9482 6.87212L27.8767 4.57406L27.8767 4.57402L25.9482 6.87212ZM24.0651 6.87212L25.9935 9.17025L25.9936 9.17022L24.0651 6.87212ZM19.6053 10.6144V13.6144H20.6972L21.5336 12.9125L19.6053 10.6144ZM12.3408 11.8249L9.38641 11.3039L9.38641 11.3039L12.3408 11.8249ZM11.3299 17.5583L13.2582 19.8564L14.0947 19.1545L14.2843 18.0792L11.3299 17.5583ZM6.87003 21.3004L8.79823 23.5987L8.79837 23.5986L6.87003 21.3004ZM6.54298 23.155L3.94469 24.6547L3.9449 24.655L6.54298 23.155ZM9.45392 28.1969L12.4083 28.7179L12.5979 27.6425L12.052 26.6969L9.45392 28.1969ZM8.44298 33.9304L11.3974 34.4514L11.3974 34.4513L8.44298 33.9304ZM9.38458 35.5613L8.35849 38.3803L8.35852 38.3804L9.38458 35.5613ZM14.8554 37.5525L17.4535 36.0525L16.9075 35.1069L15.8814 34.7334L14.8554 37.5525ZM17.7663 42.5944L15.1682 44.0944L15.1683 44.0945L17.7663 42.5944ZM19.5358 43.2384L18.5098 40.4193L18.5094 40.4195L19.5358 43.2384ZM25.0066 41.2472L26.0327 38.4281L25.0066 38.0547L23.9806 38.4281L25.0066 41.2472ZM30.4774 43.2384L31.5168 40.4242L31.5102 40.4218L31.5035 40.4193L30.4774 43.2384ZM32.247 42.5944L29.6489 41.0944L29.6443 41.1024L32.247 42.5944ZM35.1579 37.5525L34.1319 34.7334L33.1058 35.1069L32.5598 36.0525L35.1579 37.5525ZM40.6287 35.5613L41.6548 38.3804L41.6549 38.3803L40.6287 35.5613ZM41.5703 33.9304L44.5247 33.4095L44.5247 33.4095L41.5703 33.9304ZM40.5594 28.1969L37.9613 26.6969L37.4154 27.6425L37.605 28.7179L40.5594 28.1969ZM43.4703 23.155L40.8726 21.6544L40.8722 21.655L43.4703 23.155ZM26.065 33.0644L28.2101 35.1618L28.2101 35.1617L26.065 33.0644ZM25.0194 33.5052V36.5052L25.0232 36.5052L25.0194 33.5052ZM23.9728 33.067L26.113 30.9648L26.1126 30.9644L23.9728 33.067ZM19.5817 28.5983L17.4419 30.7009L17.4419 30.7009L19.5817 28.5983ZM19.5999 26.5268L17.4975 24.3867L17.4973 24.3869L19.5999 26.5268ZM21.6714 26.545L19.5315 28.6476L19.5315 28.6476L21.6714 26.545ZM23.5527 28.4596L21.4129 30.5623L26.5527 35.7931V28.4596H23.5527ZM26.4824 28.4468H23.4824V35.8066L28.6276 30.5441L26.4824 28.4468ZM28.3393 26.5476L26.1942 24.4503L26.1941 24.4504L28.3393 26.5476ZM30.4108 26.5243L28.3135 28.6694L28.3138 28.6697L30.4108 26.5243ZM45.0717 19.0025L40.6118 15.2603L36.7552 19.8566L41.215 23.5988L45.0717 19.0025ZM41.6379 17.0375L40.627 11.3041L34.7181 12.346L35.7291 18.0794L41.6379 17.0375ZM40.627 11.3041C40.2507 9.1701 38.3966 7.6146 36.23 7.6146V13.6146C35.4851 13.6146 34.8475 13.0798 34.7181 12.346L40.627 11.3041ZM36.23 7.6146H30.408V13.6146H36.23V7.6146ZM32.3365 8.31654L27.8767 4.57406L24.0198 9.17018L28.4796 12.9127L32.3365 8.31654ZM27.8767 4.57402C26.2168 3.18122 23.7966 3.18122 22.1367 4.57402L25.9936 9.17022C25.4228 9.64915 24.5906 9.64915 24.0198 9.17022L27.8767 4.57402ZM22.1368 4.57399L17.6769 8.31627L21.5336 12.9125L25.9935 9.17025L22.1368 4.57399ZM19.6053 7.6144H13.7834V13.6144H19.6053V7.6144ZM13.7834 7.6144C11.6167 7.6144 9.76267 9.17017 9.38641 11.3039L15.2952 12.3458C15.1659 13.0795 14.5285 13.6144 13.7834 13.6144V7.6144ZM9.38641 11.3039L8.37547 17.0373L14.2843 18.0792L15.2953 12.3458L9.38641 11.3039ZM9.40156 15.2601L4.94169 19.0023L8.79837 23.5986L13.2582 19.8564L9.40156 15.2601ZM4.94183 19.0022C3.28144 20.3952 2.86192 22.7786 3.94469 24.6547L9.14127 21.6554C9.5133 22.3 9.36937 23.1195 8.79823 23.5987L4.94183 19.0022ZM3.9449 24.655L6.85584 29.6969L12.052 26.6969L9.14106 21.655L3.9449 24.655ZM6.49949 27.676L5.48855 33.4095L11.3974 34.4513L12.4083 28.7179L6.49949 27.676ZM5.48856 33.4094C5.1123 35.5432 6.32233 37.6392 8.35849 38.3803L10.4107 32.7422C11.1107 32.997 11.5268 33.7177 11.3974 34.4514L5.48856 33.4094ZM8.35852 38.3804L13.8293 40.3716L15.8814 34.7334L10.4106 32.7422L8.35852 38.3804ZM12.2573 39.0525L15.1682 44.0944L20.3644 41.0944L17.4535 36.0525L12.2573 39.0525ZM15.1683 44.0945C16.2515 45.9704 18.5254 46.799 20.5623 46.0574L18.5094 40.4195C19.2101 40.1643 19.9921 40.4497 20.3643 41.0943L15.1683 44.0945ZM20.5619 46.0575L26.0327 44.0663L23.9806 38.4281L18.5098 40.4193L20.5619 46.0575ZM23.9806 44.0663L29.4514 46.0575L31.5035 40.4193L26.0327 38.4281L23.9806 44.0663ZM29.4381 46.0526C31.4521 46.7965 33.7578 45.9911 34.8496 44.0864L29.6443 41.1024C30.0249 40.4385 30.8122 40.164 31.5168 40.4242L29.4381 46.0526ZM34.8451 44.0944L37.756 39.0525L32.5598 36.0525L29.6489 41.0944L34.8451 44.0944ZM36.184 40.3716L41.6548 38.3804L39.6027 32.7422L34.1319 34.7334L36.184 40.3716ZM41.6549 38.3803C43.6906 37.6392 44.901 35.5436 44.5247 33.4095L38.6159 34.4513C38.4865 33.7174 38.9028 32.997 39.6025 32.7423L41.6549 38.3803ZM44.5247 33.4095L43.5138 27.676L37.605 28.7179L38.6159 34.4513L44.5247 33.4095ZM43.1575 29.6969L46.0684 24.655L40.8722 21.655L37.9613 26.6969L43.1575 29.6969ZM46.068 24.6556C47.1522 22.7788 46.7315 20.395 45.0716 19.0024L41.2152 23.5989C40.6445 23.1201 40.4995 22.3002 40.8726 21.6544L46.068 24.6556ZM28.2891 26.4984L23.92 30.9671L28.2101 35.1617L32.5793 30.6929L28.2891 26.4984ZM23.92 30.967C24.2081 30.6724 24.603 30.5057 25.0157 30.5052L25.0232 36.5052C26.2232 36.5037 27.3716 36.0193 28.2101 35.1618L23.92 30.967ZM25.0194 30.5052C25.0194 30.5052 25.0194 30.5052 25.0194 30.5052C25.0194 30.5052 25.0194 30.5052 25.0194 30.5052C25.0194 30.5052 25.0194 30.5052 25.0194 30.5052C25.0194 30.5052 25.0194 30.5052 25.0194 30.5052H25.0194C25.0194 30.5052 25.0194 30.5052 25.0194 30.5052C25.0194 30.5052 25.0194 30.5052 25.0194 30.5052C25.0194 30.5052 25.0194 30.5052 25.0194 30.5052C25.0194 30.5052 25.0194 30.5052 25.0194 30.5052H25.0194C25.0194 30.5052 25.0194 30.5052 25.0194 30.5052C25.0194 30.5052 25.0194 30.5052 25.0194 30.5052C25.0194 30.5052 25.0194 30.5052 25.0194 30.5052C25.0194 30.5052 25.0194 30.5052 25.0194 30.5052H25.0194C25.0194 30.5052 25.0194 30.5052 25.0194 30.5052C25.0194 30.5052 25.0194 30.5052 25.0194 30.5052C25.0194 30.5052 25.0194 30.5052 25.0194 30.5052C25.0194 30.5052 25.0194 30.5052 25.0194 30.5052H25.0194C25.0194 30.5052 25.0194 30.5052 25.0194 30.5052C25.0194 30.5052 25.0194 30.5052 25.0194 30.5052C25.0194 30.5052 25.0194 30.5052 25.0194 30.5052C25.0194 30.5052 25.0194 30.5052 25.0194 30.5052H25.0194C25.0194 30.5052 25.0194 30.5052 25.0194 30.5052C25.0194 30.5052 25.0194 30.5052 25.0194 30.5052C25.0193 30.5052 25.0193 30.5052 25.0193 30.5052C25.0193 30.5052 25.0193 30.5052 25.0193 30.5052H25.0193C25.0193 30.5052 25.0193 30.5052 25.0193 30.5052C25.0193 30.5052 25.0193 30.5052 25.0193 30.5052C25.0193 30.5052 25.0193 30.5052 25.0193 30.5052C25.0193 30.5052 25.0193 30.5052 25.0193 30.5052H25.0193C25.0193 30.5052 25.0193 30.5052 25.0193 30.5052C25.0193 30.5052 25.0193 30.5052 25.0193 30.5052C25.0193 30.5052 25.0193 30.5052 25.0193 30.5052C25.0193 30.5052 25.0193 30.5052 25.0193 30.5052H25.0193C25.0193 30.5052 25.0193 30.5052 25.0193 30.5052C25.0193 30.5052 25.0193 30.5052 25.0193 30.5052C25.0193 30.5052 25.0193 30.5052 25.0193 30.5052C25.0193 30.5052 25.0193 30.5052 25.0193 30.5052C25.0193 30.5052 25.0193 30.5052 25.0193 30.5052H25.0193C25.0193 30.5052 25.0193 30.5052 25.0193 30.5052C25.0193 30.5052 25.0193 30.5052 25.0193 30.5052C25.0193 30.5052 25.0193 30.5052 25.0193 30.5052C25.0193 30.5052 25.0193 30.5052 25.0193 30.5052H25.0193C25.0193 30.5052 25.0193 30.5052 25.0193 30.5052C25.0193 30.5052 25.0193 30.5052 25.0193 30.5052C25.0193 30.5052 25.0193 30.5052 25.0193 30.5052C25.0193 30.5052 25.0193 30.5052 25.0193 30.5052H25.0193C25.0192 30.5052 25.0192 30.5052 25.0192 30.5052C25.0192 30.5052 25.0192 30.5052 25.0192 30.5052C25.0192 30.5052 25.0192 30.5052 25.0192 30.5052C25.0192 30.5052 25.0192 30.5052 25.0192 30.5052H25.0192C25.0192 30.5052 25.0192 30.5052 25.0192 30.5052C25.0192 30.5052 25.0192 30.5052 25.0192 30.5052C25.0192 30.5052 25.0192 30.5052 25.0192 30.5052C25.0192 30.5052 25.0192 30.5052 25.0192 30.5052H25.0192C25.0192 30.5052 25.0192 30.5052 25.0192 30.5052C25.0192 30.5052 25.0192 30.5052 25.0192 30.5052C25.0192 30.5052 25.0192 30.5052 25.0192 30.5052C25.0192 30.5052 25.0192 30.5052 25.0192 30.5052H25.0192C25.0192 30.5052 25.0192 30.5052 25.0192 30.5052C25.0192 30.5052 25.0192 30.5052 25.0192 30.5052C25.0192 30.5052 25.0192 30.5052 25.0192 30.5052C25.0192 30.5052 25.0192 30.5052 25.0192 30.5052H25.0192C25.0192 30.5052 25.0192 30.5052 25.0192 30.5052C25.0192 30.5052 25.0192 30.5052 25.0192 30.5052C25.0192 30.5052 25.0192 30.5052 25.0192 30.5052C25.0192 30.5052 25.0192 30.5052 25.0192 30.5052C25.0192 30.5052 25.0192 30.5052 25.0192 30.5052H25.0192C25.0192 30.5052 25.0192 30.5052 25.0192 30.5052C25.0192 30.5052 25.0192 30.5052 25.0192 30.5052C25.0192 30.5052 25.0192 30.5052 25.0191 30.5052C25.0191 30.5052 25.0191 30.5052 25.0191 30.5052H25.0191C25.0191 30.5052 25.0191 30.5052 25.0191 30.5052C25.0191 30.5052 25.0191 30.5052 25.0191 30.5052C25.0191 30.5052 25.0191 30.5052 25.0191 30.5052C25.0191 30.5052 25.0191 30.5052 25.0191 30.5052H25.0191C25.0191 30.5052 25.0191 30.5052 25.0191 30.5052C25.0191 30.5052 25.0191 30.5052 25.0191 30.5052C25.0191 30.5052 25.0191 30.5052 25.0191 30.5052C25.0191 30.5052 25.0191 30.5052 25.0191 30.5052H25.0191C25.0191 30.5052 25.0191 30.5052 25.0191 30.5052C25.0191 30.5052 25.0191 30.5052 25.0191 30.5052C25.0191 30.5052 25.0191 30.5052 25.0191 30.5052C25.0191 30.5052 25.0191 30.5052 25.0191 30.5052C25.0191 30.5052 25.0191 30.5052 25.0191 30.5052H25.0191C25.0191 30.5052 25.0191 30.5052 25.0191 30.5052C25.0191 30.5052 25.0191 30.5052 25.0191 30.5052C25.0191 30.5052 25.0191 30.5052 25.0191 30.5052C25.0191 30.5052 25.0191 30.5052 25.0191 30.5052H25.0191C25.0191 30.5052 25.0191 30.5052 25.0191 30.5052C25.0191 30.5052 25.0191 30.5052 25.0191 30.5052C25.0191 30.5052 25.0191 30.5052 25.0191 30.5052C25.0191 30.5052 25.0191 30.5052 25.0191 30.5052H25.0191C25.0191 30.5052 25.0191 30.5052 25.0191 30.5052C25.019 30.5052 25.019 30.5052 25.019 30.5052C25.019 30.5052 25.019 30.5052 25.019 30.5052C25.019 30.5052 25.019 30.5052 25.019 30.5052C25.019 30.5052 25.019 30.5052 25.019 30.5052H25.019C25.019 30.5052 25.019 30.5052 25.019 30.5052C25.019 30.5052 25.019 30.5052 25.019 30.5052C25.019 30.5052 25.019 30.5052 25.019 30.5052C25.019 30.5052 25.019 30.5052 25.019 30.5052H25.019C25.019 30.5052 25.019 30.5052 25.019 30.5052C25.019 30.5052 25.019 30.5052 25.019 30.5052C25.019 30.5052 25.019 30.5052 25.019 30.5052C25.019 30.5052 25.019 30.5052 25.019 30.5052C25.019 30.5052 25.019 30.5052 25.019 30.5052H25.019C25.019 30.5052 25.019 30.5052 25.019 30.5052C25.019 30.5052 25.019 30.5052 25.019 30.5052C25.019 30.5052 25.019 30.5052 25.019 30.5052C25.019 30.5052 25.019 30.5052 25.019 30.5052C25.019 30.5052 25.019 30.5052 25.019 30.5052H25.019C25.019 30.5052 25.019 30.5052 25.019 30.5052C25.019 30.5052 25.019 30.5052 25.019 30.5052C25.019 30.5052 25.019 30.5052 25.019 30.5052C25.019 30.5052 25.019 30.5052 25.019 30.5052H25.019C25.019 30.5052 25.019 30.5052 25.019 30.5052C25.019 30.5052 25.019 30.5052 25.0189 30.5052C25.0189 30.5052 25.0189 30.5052 25.0189 30.5052C25.0189 30.5052 25.0189 30.5052 25.0189 30.5052C25.0189 30.5052 25.0189 30.5052 25.0189 30.5052H25.0189C25.0189 30.5052 25.0189 30.5052 25.0189 30.5052C25.0189 30.5052 25.0189 30.5052 25.0189 30.5052C25.0189 30.5052 25.0189 30.5052 25.0189 30.5052C25.0189 30.5052 25.0189 30.5052 25.0189 30.5052C25.0189 30.5052 25.0189 30.5052 25.0189 30.5052H25.0189C25.0189 30.5052 25.0189 30.5052 25.0189 30.5052C25.0189 30.5052 25.0189 30.5052 25.0189 30.5052C25.0189 30.5052 25.0189 30.5052 25.0189 30.5052C25.0189 30.5052 25.0189 30.5052 25.0189 30.5052C25.0189 30.5052 25.0189 30.5052 25.0189 30.5052H25.0189C25.0189 30.5052 25.0189 30.5052 25.0189 30.5052C25.0189 30.5052 25.0189 30.5052 25.0189 30.5052C25.0189 30.5052 25.0189 30.5052 25.0189 30.5052C25.0189 30.5052 25.0189 30.5052 25.0189 30.5052H25.0189C25.0189 30.5052 25.0189 30.5052 25.0189 30.5052C25.0189 30.5052 25.0189 30.5052 25.0189 30.5052C25.0189 30.5052 25.0189 30.5052 25.0189 30.5052C25.0189 30.5052 25.0189 30.5052 25.0189 30.5052C25.0189 30.5052 25.0189 30.5052 25.0189 30.5052C25.0189 30.5052 25.0189 30.5052 25.0189 30.5052H25.0189C25.0189 30.5052 25.0188 30.5052 25.0188 30.5052C25.0188 30.5052 25.0188 30.5052 25.0188 30.5052C25.0188 30.5052 25.0188 30.5052 25.0188 30.5052C25.0188 30.5052 25.0188 30.5052 25.0188 30.5052C25.0188 30.5052 25.0188 30.5052 25.0188 30.5052H25.0188C25.0188 30.5052 25.0188 30.5052 25.0188 30.5052C25.0188 30.5052 25.0188 30.5052 25.0188 30.5052C25.0188 30.5052 25.0188 30.5052 25.0188 30.5052C25.0188 30.5052 25.0188 30.5052 25.0188 30.5052C25.0188 30.5052 25.0188 30.5052 25.0188 30.5052H25.0188C25.0188 30.5052 25.0188 30.5052 25.0188 30.5052C25.0188 30.5052 25.0188 30.5052 25.0188 30.5052C25.0188 30.5052 25.0188 30.5052 25.0188 30.5052C25.0188 30.5052 25.0188 30.5052 25.0188 30.5052C25.0188 30.5052 25.0188 30.5052 25.0188 30.5052H25.0188C25.0188 30.5052 25.0188 30.5052 25.0188 30.5052C25.0188 30.5052 25.0188 30.5052 25.0188 30.5052C25.0188 30.5052 25.0188 30.5052 25.0188 30.5052C25.0188 30.5052 25.0188 30.5052 25.0188 30.5052C25.0188 30.5052 25.0188 30.5052 25.0188 30.5052H25.0188C25.0188 30.5052 25.0188 30.5052 25.0188 30.5052C25.0188 30.5052 25.0188 30.5052 25.0188 30.5052C25.0188 30.5052 25.0188 30.5052 25.0188 30.5052C25.0188 30.5052 25.0188 30.5052 25.0188 30.5052C25.0188 30.5052 25.0188 30.5052 25.0187 30.5052C25.0187 30.5052 25.0187 30.5052 25.0187 30.5052H25.0187C25.0187 30.5052 25.0187 30.5052 25.0187 30.5052C25.0187 30.5052 25.0187 30.5052 25.0187 30.5052C25.0187 30.5052 25.0187 30.5052 25.0187 30.5052C25.0187 30.5052 25.0187 30.5052 25.0187 30.5052C25.0187 30.5052 25.0187 30.5052 25.0187 30.5052C25.0187 30.5052 25.0187 30.5052 25.0187 30.5052H25.0187C25.0187 30.5052 25.0187 30.5052 25.0187 30.5052C25.0187 30.5052 25.0187 30.5052 25.0187 30.5052C25.0187 30.5052 25.0187 30.5052 25.0187 30.5052C25.0187 30.5052 25.0187 30.5052 25.0187 30.5052C25.0187 30.5052 25.0187 30.5052 25.0187 30.5052H25.0187C25.0187 30.5052 25.0187 30.5052 25.0187 30.5052C25.0187 30.5052 25.0187 30.5052 25.0187 30.5052C25.0187 30.5052 25.0187 30.5052 25.0187 30.5052C25.0187 30.5052 25.0187 30.5052 25.0187 30.5052C25.0187 30.5052 25.0187 30.5052 25.0187 30.5052C25.0187 30.5052 25.0187 30.5052 25.0187 30.5052H25.0187C25.0187 30.5052 25.0187 30.5052 25.0187 30.5052C25.0187 30.5052 25.0187 30.5052 25.0187 30.5052C25.0187 30.5052 25.0187 30.5052 25.0187 30.5052C25.0187 30.5052 25.0187 30.5052 25.0187 30.5052C25.0187 30.5052 25.0187 30.5052 25.0187 30.5052C25.0187 30.5052 25.0187 30.5052 25.0187 30.5052C25.0187 30.5052 25.0186 30.5052 25.0186 30.5052H25.0186C25.0186 30.5052 25.0186 30.5052 25.0186 30.5052C25.0186 30.5052 25.0186 30.5052 25.0186 30.5052C25.0186 30.5052 25.0186 30.5052 25.0186 30.5052C25.0186 30.5052 25.0186 30.5052 25.0186 30.5052C25.0186 30.5052 25.0186 30.5052 25.0186 30.5052C25.0186 30.5052 25.0186 30.5052 25.0186 30.5052H25.0186C25.0186 30.5052 25.0186 30.5052 25.0186 30.5052C25.0186 30.5052 25.0186 30.5052 25.0186 30.5052C25.0186 30.5052 25.0186 30.5052 25.0186 30.5052C25.0186 30.5052 25.0186 30.5052 25.0186 30.5052C25.0186 30.5052 25.0186 30.5052 25.0186 30.5052C25.0186 30.5052 25.0186 30.5052 25.0186 30.5052C25.0186 30.5052 25.0186 30.5052 25.0186 30.5052H25.0186C25.0186 30.5052 25.0186 30.5052 25.0186 30.5052C25.0186 30.5052 25.0186 30.5052 25.0186 30.5052C25.0186 30.5052 25.0186 30.5052 25.0186 30.5052C25.0186 30.5052 25.0186 30.5052 25.0186 30.5052C25.0186 30.5052 25.0186 30.5052 25.0186 30.5052C25.0186 30.5052 25.0186 30.5052 25.0186 30.5052H25.0186C25.0186 30.5052 25.0186 30.5052 25.0186 30.5052C25.0186 30.5052 25.0186 30.5052 25.0186 30.5052C25.0186 30.5052 25.0186 30.5052 25.0186 30.5052C25.0186 30.5052 25.0186 30.5052 25.0186 30.5052C25.0185 30.5052 25.0185 30.5052 25.0185 30.5052C25.0185 30.5052 25.0185 30.5052 25.0185 30.5052C25.0185 30.5052 25.0185 30.5052 25.0185 30.5052H25.0185C25.0185 30.5052 25.0185 30.5052 25.0185 30.5052C25.0185 30.5052 25.0185 30.5052 25.0185 30.5052C25.0185 30.5052 25.0185 30.5052 25.0185 30.5052C25.0185 30.5052 25.0185 30.5052 25.0185 30.5052C25.0185 30.5052 25.0185 30.5052 25.0185 30.5052C25.0185 30.5052 25.0185 30.5052 25.0185 30.5052C25.0185 30.5052 25.0185 30.5052 25.0185 30.5052C25.0185 30.5052 25.0185 30.5052 25.0185 30.5052H25.0185C25.0185 30.5052 25.0185 30.5052 25.0185 30.5052C25.0185 30.5052 25.0185 30.5052 25.0185 30.5052C25.0185 30.5052 25.0185 30.5052 25.0185 30.5052C25.0185 30.5052 25.0185 30.5052 25.0185 30.5052C25.0185 30.5052 25.0185 30.5052 25.0185 30.5052C25.0185 30.5052 25.0185 30.5052 25.0185 30.5052C25.0185 30.5052 25.0185 30.5052 25.0185 30.5052C25.0185 30.5052 25.0185 30.5052 25.0185 30.5052H25.0185C25.0185 30.5052 25.0185 30.5052 25.0185 30.5052C25.0185 30.5052 25.0185 30.5052 25.0185 30.5052C25.0185 30.5052 25.0185 30.5052 25.0185 30.5052C25.0185 30.5052 25.0185 30.5052 25.0185 30.5052C25.0185 30.5052 25.0185 30.5052 25.0185 30.5052C25.0185 30.5052 25.0185 30.5052 25.0184 30.5052C25.0184 30.5052 25.0184 30.5052 25.0184 30.5052C25.0184 30.5052 25.0184 30.5052 25.0184 30.5052H25.0184C25.0184 30.5052 25.0184 30.5052 25.0184 30.5052C25.0184 30.5052 25.0184 30.5052 25.0184 30.5052C25.0184 30.5052 25.0184 30.5052 25.0184 30.5052C25.0184 30.5052 25.0184 30.5052 25.0184 30.5052C25.0184 30.5052 25.0184 30.5052 25.0184 30.5052C25.0184 30.5052 25.0184 30.5052 25.0184 30.5052C25.0184 30.5052 25.0184 30.5052 25.0184 30.5052C25.0184 30.5052 25.0184 30.5052 25.0184 30.5052C25.0184 30.5052 25.0184 30.5052 25.0184 30.5052H25.0184C25.0184 30.5052 25.0184 30.5052 25.0184 30.5052C25.0184 30.5052 25.0184 30.5052 25.0184 30.5052C25.0184 30.5052 25.0184 30.5052 25.0184 30.5052C25.0184 30.5052 25.0184 30.5052 25.0184 30.5052C25.0184 30.5052 25.0184 30.5052 25.0184 30.5052C25.0184 30.5052 25.0184 30.5052 25.0184 30.5052C25.0184 30.5052 25.0184 30.5052 25.0184 30.5052C25.0184 30.5052 25.0184 30.5052 25.0184 30.5052C25.0184 30.5052 25.0184 30.5052 25.0184 30.5052C25.0184 30.5052 25.0184 30.5052 25.0184 30.5052H25.0184C25.0184 30.5052 25.0184 30.5052 25.0184 30.5052C25.0184 30.5052 25.0184 30.5052 25.0184 30.5052C25.0184 30.5052 25.0184 30.5052 25.0184 30.5052C25.0184 30.5052 25.0184 30.5052 25.0183 30.5052C25.0183 30.5052 25.0183 30.5052 25.0183 30.5052C25.0183 30.5052 25.0183 30.5052 25.0183 30.5052C25.0183 30.5052 25.0183 30.5052 25.0183 30.5052C25.0183 30.5052 25.0183 30.5052 25.0183 30.5052C25.0183 30.5052 25.0183 30.5052 25.0183 30.5052C25.0183 30.5052 25.0183 30.5052 25.0183 30.5052H25.0183C25.0183 30.5052 25.0183 30.5052 25.0183 30.5052C25.0183 30.5052 25.0183 30.5052 25.0183 30.5052C25.0183 30.5052 25.0183 30.5052 25.0183 30.5052C25.0183 30.5052 25.0183 30.5052 25.0183 30.5052C25.0183 30.5052 25.0183 30.5052 25.0183 30.5052C25.0183 30.5052 25.0183 30.5052 25.0183 30.5052C25.0183 30.5052 25.0183 30.5052 25.0183 30.5052C25.0183 30.5052 25.0183 30.5052 25.0183 30.5052C25.0183 30.5052 25.0183 30.5052 25.0183 30.5052C25.0183 30.5052 25.0183 30.5052 25.0183 30.5052C25.0183 30.5052 25.0183 30.5052 25.0183 30.5052C25.0183 30.5052 25.0183 30.5052 25.0183 30.5052H25.0183C25.0183 30.5052 25.0183 30.5052 25.0183 30.5052C25.0183 30.5052 25.0183 30.5052 25.0183 30.5052C25.0183 30.5052 25.0183 30.5052 25.0183 30.5052C25.0183 30.5052 25.0183 30.5052 25.0183 30.5052C25.0183 30.5052 25.0183 30.5052 25.0183 30.5052C25.0183 30.5052 25.0183 30.5052 25.0183 30.5052C25.0183 30.5052 25.0183 30.5052 25.0182 30.5052C25.0182 30.5052 25.0182 30.5052 25.0182 30.5052C25.0182 30.5052 25.0182 30.5052 25.0182 30.5052C25.0182 30.5052 25.0182 30.5052 25.0182 30.5052C25.0182 30.5052 25.0182 30.5052 25.0182 30.5052C25.0182 30.5052 25.0182 30.5052 25.0182 30.5052C25.0182 30.5052 25.0182 30.5052 25.0182 30.5052C25.0182 30.5052 25.0182 30.5052 25.0182 30.5052H25.0182C25.0182 30.5052 25.0182 30.5052 25.0182 30.5052C25.0182 30.5052 25.0182 30.5052 25.0182 30.5052C25.0182 30.5052 25.0182 30.5052 25.0182 30.5052C25.0182 30.5052 25.0182 30.5052 25.0182 30.5052C25.0182 30.5052 25.0182 30.5052 25.0182 30.5052C25.0182 30.5052 25.0182 30.5052 25.0182 30.5052C25.0182 30.5052 25.0182 30.5052 25.0182 30.5052C25.0182 30.5052 25.0182 30.5052 25.0182 30.5052C25.0182 30.5052 25.0182 30.5052 25.0182 30.5052C25.0182 30.5052 25.0182 30.5052 25.0182 30.5052C25.0182 30.5052 25.0182 30.5052 25.0182 30.5052C25.0182 30.5052 25.0182 30.5052 25.0182 30.5052C25.0182 30.5052 25.0182 30.5052 25.0182 30.5052C25.0182 30.5052 25.0182 30.5052 25.0182 30.5052C25.0182 30.5052 25.0182 30.5052 25.0182 30.5052C25.0182 30.5052 25.0182 30.5052 25.0182 30.5052C25.0182 30.5052 25.0182 30.5052 25.0182 30.5052C25.0182 30.5052 25.0182 30.5052 25.0182 30.5052H25.0182C25.0181 30.5052 25.0181 30.5052 25.0181 30.5052C25.0181 30.5052 25.0181 30.5052 25.0181 30.5052C25.0181 30.5052 25.0181 30.5052 25.0181 30.5052C25.0181 30.5052 25.0181 30.5052 25.0181 30.5052C25.0181 30.5052 25.0181 30.5052 25.0181 30.5052C25.0181 30.5052 25.0181 30.5052 25.0181 30.5052C25.0181 30.5052 25.0181 30.5052 25.0181 30.5052C25.0181 30.5052 25.0181 30.5052 25.0181 30.5052C25.0181 30.5052 25.0181 30.5052 25.0181 30.5052C25.0181 30.5052 25.0181 30.5052 25.0181 30.5052C25.0181 30.5052 25.0181 30.5052 25.0181 30.5052C25.0181 30.5052 25.0181 30.5052 25.0181 30.5052C25.0181 30.5052 25.0181 30.5052 25.0181 30.5052C25.0181 30.5052 25.0181 30.5052 25.0181 30.5052C25.0181 30.5052 25.0181 30.5052 25.0181 30.5052C25.0181 30.5052 25.0181 30.5052 25.0181 30.5052C25.0181 30.5052 25.0181 30.5052 25.0181 30.5052C25.0181 30.5052 25.0181 30.5052 25.0181 30.5052C25.0181 30.5052 25.0181 30.5052 25.0181 30.5052C25.0181 30.5052 25.0181 30.5052 25.0181 30.5052C25.0181 30.5052 25.0181 30.5052 25.0181 30.5052C25.0181 30.5052 25.0181 30.5052 25.0181 30.5052C25.0181 30.5052 25.0181 30.5052 25.0181 30.5052C25.0181 30.5052 25.0181 30.5052 25.0181 30.5052C25.0181 30.5052 25.0181 30.5052 25.0181 30.5052C25.0181 30.5052 25.0181 30.5052 25.0181 30.5052C25.0181 30.5052 25.018 30.5052 25.018 30.5052C25.018 30.5052 25.018 30.5052 25.018 30.5052C25.018 30.5052 25.018 30.5052 25.018 30.5052C25.018 30.5052 25.018 30.5052 25.018 30.5052H25.018C25.018 30.5052 25.018 30.5052 25.018 30.5052C25.018 30.5052 25.018 30.5052 25.018 30.5052C25.018 30.5052 25.018 30.5052 25.018 30.5052C25.018 30.5052 25.018 30.5052 25.018 30.5052C25.018 30.5052 25.018 30.5052 25.018 30.5052C25.018 30.5052 25.018 30.5052 25.018 30.5052C25.018 30.5052 25.018 30.5052 25.018 30.5052C25.018 30.5052 25.018 30.5052 25.018 30.5052C25.018 30.5052 25.018 30.5052 25.018 30.5052C25.018 30.5052 25.018 30.5052 25.018 30.5052C25.018 30.5052 25.018 30.5052 25.018 30.5052C25.018 30.5052 25.018 30.5052 25.018 30.5052C25.018 30.5052 25.018 30.5052 25.018 30.5052C25.018 30.5052 25.018 30.5052 25.018 30.5052C25.018 30.5052 25.018 30.5052 25.018 30.5052C25.018 30.5052 25.018 30.5052 25.018 30.5052C25.018 30.5052 25.018 30.5052 25.018 30.5052C25.018 30.5052 25.018 30.5052 25.018 30.5052C25.018 30.5052 25.018 30.5052 25.018 30.5052C25.018 30.5052 25.018 30.5052 25.018 30.5052C25.018 30.5052 25.018 30.5052 25.018 30.5052C25.018 30.5052 25.018 30.5052 25.018 30.5052C25.0179 30.5052 25.0179 30.5052 25.0179 30.5052C25.0179 30.5052 25.0179 30.5052 25.0179 30.5052C25.0179 30.5052 25.0179 30.5052 25.0179 30.5052C25.0179 30.5052 25.0179 30.5052 25.0179 30.5052C25.0179 30.5052 25.0179 30.5052 25.0179 30.5052C25.0179 30.5052 25.0179 30.5052 25.0179 30.5052C25.0179 30.5052 25.0179 30.5052 25.0179 30.5052C25.0179 30.5052 25.0179 30.5052 25.0179 30.5052C25.0179 30.5052 25.0179 30.5052 25.0179 30.5052C25.0179 30.5052 25.0179 30.5052 25.0179 30.5052C25.0179 30.5052 25.0179 30.5052 25.0179 30.5052C25.0179 30.5052 25.0179 30.5052 25.0179 30.5052C25.0179 30.5052 25.0179 30.5052 25.0179 30.5052C25.0179 30.5052 25.0179 30.5052 25.0179 30.5052C25.0179 30.5052 25.0179 30.5052 25.0179 30.5052C25.0179 30.5052 25.0179 30.5052 25.0179 30.5052C25.0179 30.5052 25.0179 30.5052 25.0179 30.5052C25.0179 30.5052 25.0179 30.5052 25.0179 30.5052C25.0179 30.5052 25.0179 30.5052 25.0179 30.5052C25.0179 30.5052 25.0179 30.5052 25.0179 30.5052C25.0179 30.5052 25.0179 30.5052 25.0179 30.5052C25.0179 30.5052 25.0179 30.5052 25.0179 30.5052C25.0179 30.5052 25.0179 30.5052 25.0179 30.5052C25.0179 30.5052 25.0179 30.5052 25.0179 30.5052C25.0179 30.5052 25.0179 30.5052 25.0179 30.5052C25.0179 30.5052 25.0179 30.5052 25.0178 30.5052C25.0178 30.5052 25.0178 30.5052 25.0178 30.5052C25.0178 30.5052 25.0178 30.5052 25.0178 30.5052C25.0178 30.5052 25.0178 30.5052 25.0178 30.5052C25.0178 30.5052 25.0178 30.5052 25.0178 30.5052C25.0178 30.5052 25.0178 30.5052 25.0178 30.5052C25.0178 30.5052 25.0178 30.5052 25.0178 30.5052C25.0178 30.5052 25.0178 30.5052 25.0178 30.5052C25.0178 30.5052 25.0178 30.5052 25.0178 30.5052C25.0178 30.5052 25.0178 30.5052 25.0178 30.5052C25.0178 30.5052 25.0178 30.5052 25.0178 30.5052C25.0178 30.5052 25.0178 30.5052 25.0178 30.5052C25.0178 30.5052 25.0178 30.5052 25.0178 30.5052C25.0178 30.5052 25.0178 30.5052 25.0178 30.5052C25.0178 30.5052 25.0178 30.5052 25.0178 30.5052C25.0178 30.5052 25.0178 30.5052 25.0178 30.5052C25.0178 30.5052 25.0178 30.5052 25.0178 30.5052C25.0178 30.5052 25.0178 30.5052 25.0178 30.5052C25.0178 30.5052 25.0178 30.5052 25.0178 30.5052C25.0178 30.5052 25.0178 30.5052 25.0178 30.5052C25.0178 30.5052 25.0178 30.5052 25.0178 30.5052C25.0178 30.5052 25.0178 30.5052 25.0178 30.5052C25.0178 30.5052 25.0178 30.5052 25.0178 30.5052C25.0178 30.5052 25.0178 30.5052 25.0178 30.5052C25.0178 30.5052 25.0178 30.5052 25.0178 30.5052C25.0178 30.5052 25.0178 30.5052 25.0178 30.5052C25.0178 30.5052 25.0177 30.5052 25.0177 30.5052C25.0177 30.5052 25.0177 30.5052 25.0177 30.5052C25.0177 30.5052 25.0177 30.5052 25.0177 30.5052C25.0177 30.5052 25.0177 30.5052 25.0177 30.5052C25.0177 30.5052 25.0177 30.5052 25.0177 30.5052C25.0177 30.5052 25.0177 30.5052 25.0177 30.5052C25.0177 30.5052 25.0177 30.5052 25.0177 30.5052C25.0177 30.5052 25.0177 30.5052 25.0177 30.5052C25.0177 30.5052 25.0177 30.5052 25.0177 30.5052C25.0177 30.5052 25.0177 30.5052 25.0177 30.5052C25.0177 30.5052 25.0177 30.5052 25.0177 30.5052C25.0177 30.5052 25.0177 30.5052 25.0177 30.5052C25.0177 30.5052 25.0177 30.5052 25.0177 30.5052C25.0177 30.5052 25.0177 30.5052 25.0177 30.5052C25.0177 30.5052 25.0177 30.5052 25.0177 30.5052C25.0177 30.5052 25.0177 30.5052 25.0177 30.5052C25.0177 30.5052 25.0177 30.5052 25.0177 30.5052C25.0177 30.5052 25.0177 30.5052 25.0177 30.5052C25.0177 30.5052 25.0177 30.5052 25.0177 30.5052C25.0177 30.5052 25.0177 30.5052 25.0177 30.5052C25.0177 30.5052 25.0177 30.5052 25.0177 30.5052C25.0177 30.5052 25.0177 30.5052 25.0177 30.5052C25.0177 30.5052 25.0177 30.5052 25.0177 30.5052C25.0177 30.5052 25.0177 30.5052 25.0177 30.5052C25.0177 30.5052 25.0177 30.5052 25.0177 30.5052C25.0177 30.5052 25.0177 30.5052 25.0177 30.5052C25.0176 30.5052 25.0176 30.5052 25.0176 30.5052C25.0176 30.5052 25.0176 30.5052 25.0176 30.5052C25.0176 30.5052 25.0176 30.5052 25.0176 30.5052C25.0176 30.5052 25.0176 30.5052 25.0176 30.5052C25.0176 30.5052 25.0176 30.5052 25.0176 30.5052C25.0176 30.5052 25.0176 30.5052 25.0176 30.5052C25.0176 30.5052 25.0176 30.5052 25.0176 30.5052C25.0176 30.5052 25.0176 30.5052 25.0176 30.5052C25.0176 30.5052 25.0176 30.5052 25.0176 30.5052C25.0176 30.5052 25.0176 30.5052 25.0176 30.5052C25.0176 30.5052 25.0176 30.5052 25.0176 30.5052C25.0176 30.5052 25.0176 30.5052 25.0176 30.5052C25.0176 30.5052 25.0176 30.5052 25.0176 30.5052C25.0176 30.5052 25.0176 30.5052 25.0176 30.5052C25.0176 30.5052 25.0176 30.5052 25.0176 30.5052C25.0176 30.5052 25.0176 30.5052 25.0176 30.5052V36.5052C25.0176 36.5052 25.0176 36.5052 25.0176 36.5052C25.0176 36.5052 25.0176 36.5052 25.0176 36.5052C25.0176 36.5052 25.0176 36.5052 25.0176 36.5052C25.0176 36.5052 25.0176 36.5052 25.0176 36.5052C25.0176 36.5052 25.0176 36.5052 25.0176 36.5052C25.0176 36.5052 25.0176 36.5052 25.0176 36.5052C25.0176 36.5052 25.0176 36.5052 25.0176 36.5052C25.0176 36.5052 25.0176 36.5052 25.0176 36.5052C25.0176 36.5052 25.0176 36.5052 25.0176 36.5052C25.0176 36.5052 25.0176 36.5052 25.0176 36.5052C25.0176 36.5052 25.0176 36.5052 25.0176 36.5052C25.0176 36.5052 25.0176 36.5052 25.0176 36.5052C25.0176 36.5052 25.0176 36.5052 25.0176 36.5052C25.0176 36.5052 25.0176 36.5052 25.0176 36.5052C25.0176 36.5052 25.0176 36.5052 25.0176 36.5052C25.0176 36.5052 25.0176 36.5052 25.0177 36.5052C25.0177 36.5052 25.0177 36.5052 25.0177 36.5052C25.0177 36.5052 25.0177 36.5052 25.0177 36.5052C25.0177 36.5052 25.0177 36.5052 25.0177 36.5052C25.0177 36.5052 25.0177 36.5052 25.0177 36.5052C25.0177 36.5052 25.0177 36.5052 25.0177 36.5052C25.0177 36.5052 25.0177 36.5052 25.0177 36.5052C25.0177 36.5052 25.0177 36.5052 25.0177 36.5052C25.0177 36.5052 25.0177 36.5052 25.0177 36.5052C25.0177 36.5052 25.0177 36.5052 25.0177 36.5052C25.0177 36.5052 25.0177 36.5052 25.0177 36.5052C25.0177 36.5052 25.0177 36.5052 25.0177 36.5052C25.0177 36.5052 25.0177 36.5052 25.0177 36.5052C25.0177 36.5052 25.0177 36.5052 25.0177 36.5052C25.0177 36.5052 25.0177 36.5052 25.0177 36.5052C25.0177 36.5052 25.0177 36.5052 25.0177 36.5052C25.0177 36.5052 25.0177 36.5052 25.0177 36.5052C25.0177 36.5052 25.0177 36.5052 25.0177 36.5052C25.0177 36.5052 25.0177 36.5052 25.0177 36.5052C25.0177 36.5052 25.0177 36.5052 25.0177 36.5052C25.0177 36.5052 25.0177 36.5052 25.0177 36.5052C25.0177 36.5052 25.0177 36.5052 25.0177 36.5052C25.0177 36.5052 25.0177 36.5052 25.0177 36.5052C25.0177 36.5052 25.0177 36.5052 25.0177 36.5052C25.0177 36.5052 25.0177 36.5052 25.0177 36.5052C25.0177 36.5052 25.0177 36.5052 25.0177 36.5052C25.0177 36.5052 25.0178 36.5052 25.0178 36.5052C25.0178 36.5052 25.0178 36.5052 25.0178 36.5052C25.0178 36.5052 25.0178 36.5052 25.0178 36.5052C25.0178 36.5052 25.0178 36.5052 25.0178 36.5052C25.0178 36.5052 25.0178 36.5052 25.0178 36.5052C25.0178 36.5052 25.0178 36.5052 25.0178 36.5052C25.0178 36.5052 25.0178 36.5052 25.0178 36.5052C25.0178 36.5052 25.0178 36.5052 25.0178 36.5052C25.0178 36.5052 25.0178 36.5052 25.0178 36.5052C25.0178 36.5052 25.0178 36.5052 25.0178 36.5052C25.0178 36.5052 25.0178 36.5052 25.0178 36.5052C25.0178 36.5052 25.0178 36.5052 25.0178 36.5052C25.0178 36.5052 25.0178 36.5052 25.0178 36.5052C25.0178 36.5052 25.0178 36.5052 25.0178 36.5052C25.0178 36.5052 25.0178 36.5052 25.0178 36.5052C25.0178 36.5052 25.0178 36.5052 25.0178 36.5052C25.0178 36.5052 25.0178 36.5052 25.0178 36.5052C25.0178 36.5052 25.0178 36.5052 25.0178 36.5052C25.0178 36.5052 25.0178 36.5052 25.0178 36.5052C25.0178 36.5052 25.0178 36.5052 25.0178 36.5052C25.0178 36.5052 25.0178 36.5052 25.0178 36.5052C25.0178 36.5052 25.0178 36.5052 25.0178 36.5052C25.0178 36.5052 25.0178 36.5052 25.0178 36.5052C25.0178 36.5052 25.0178 36.5052 25.0178 36.5052C25.0178 36.5052 25.0178 36.5052 25.0178 36.5052C25.0178 36.5052 25.0178 36.5052 25.0178 36.5052C25.0179 36.5052 25.0179 36.5052 25.0179 36.5052C25.0179 36.5052 25.0179 36.5052 25.0179 36.5052C25.0179 36.5052 25.0179 36.5052 25.0179 36.5052C25.0179 36.5052 25.0179 36.5052 25.0179 36.5052C25.0179 36.5052 25.0179 36.5052 25.0179 36.5052C25.0179 36.5052 25.0179 36.5052 25.0179 36.5052C25.0179 36.5052 25.0179 36.5052 25.0179 36.5052C25.0179 36.5052 25.0179 36.5052 25.0179 36.5052C25.0179 36.5052 25.0179 36.5052 25.0179 36.5052C25.0179 36.5052 25.0179 36.5052 25.0179 36.5052C25.0179 36.5052 25.0179 36.5052 25.0179 36.5052C25.0179 36.5052 25.0179 36.5052 25.0179 36.5052C25.0179 36.5052 25.0179 36.5052 25.0179 36.5052C25.0179 36.5052 25.0179 36.5052 25.0179 36.5052C25.0179 36.5052 25.0179 36.5052 25.0179 36.5052C25.0179 36.5052 25.0179 36.5052 25.0179 36.5052C25.0179 36.5052 25.0179 36.5052 25.0179 36.5052C25.0179 36.5052 25.0179 36.5052 25.0179 36.5052C25.0179 36.5052 25.0179 36.5052 25.0179 36.5052C25.0179 36.5052 25.0179 36.5052 25.0179 36.5052C25.0179 36.5052 25.0179 36.5052 25.0179 36.5052C25.0179 36.5052 25.0179 36.5052 25.0179 36.5052C25.0179 36.5052 25.0179 36.5052 25.0179 36.5052C25.0179 36.5052 25.0179 36.5052 25.0179 36.5052C25.0179 36.5052 25.0179 36.5052 25.0179 36.5052C25.0179 36.5052 25.0179 36.5052 25.018 36.5052C25.018 36.5052 25.018 36.5052 25.018 36.5052C25.018 36.5052 25.018 36.5052 25.018 36.5052C25.018 36.5052 25.018 36.5052 25.018 36.5052C25.018 36.5052 25.018 36.5052 25.018 36.5052C25.018 36.5052 25.018 36.5052 25.018 36.5052C25.018 36.5052 25.018 36.5052 25.018 36.5052C25.018 36.5052 25.018 36.5052 25.018 36.5052C25.018 36.5052 25.018 36.5052 25.018 36.5052C25.018 36.5052 25.018 36.5052 25.018 36.5052C25.018 36.5052 25.018 36.5052 25.018 36.5052C25.018 36.5052 25.018 36.5052 25.018 36.5052C25.018 36.5052 25.018 36.5052 25.018 36.5052C25.018 36.5052 25.018 36.5052 25.018 36.5052C25.018 36.5052 25.018 36.5052 25.018 36.5052C25.018 36.5052 25.018 36.5052 25.018 36.5052C25.018 36.5052 25.018 36.5052 25.018 36.5052C25.018 36.5052 25.018 36.5052 25.018 36.5052C25.018 36.5052 25.018 36.5052 25.018 36.5052C25.018 36.5052 25.018 36.5052 25.018 36.5052C25.018 36.5052 25.018 36.5052 25.018 36.5052C25.018 36.5052 25.018 36.5052 25.018 36.5052C25.018 36.5052 25.018 36.5052 25.018 36.5052H25.018C25.018 36.5052 25.018 36.5052 25.018 36.5052C25.018 36.5052 25.018 36.5052 25.018 36.5052C25.018 36.5052 25.018 36.5052 25.018 36.5052C25.018 36.5052 25.0181 36.5052 25.0181 36.5052C25.0181 36.5052 25.0181 36.5052 25.0181 36.5052C25.0181 36.5052 25.0181 36.5052 25.0181 36.5052C25.0181 36.5052 25.0181 36.5052 25.0181 36.5052C25.0181 36.5052 25.0181 36.5052 25.0181 36.5052C25.0181 36.5052 25.0181 36.5052 25.0181 36.5052C25.0181 36.5052 25.0181 36.5052 25.0181 36.5052C25.0181 36.5052 25.0181 36.5052 25.0181 36.5052C25.0181 36.5052 25.0181 36.5052 25.0181 36.5052C25.0181 36.5052 25.0181 36.5052 25.0181 36.5052C25.0181 36.5052 25.0181 36.5052 25.0181 36.5052C25.0181 36.5052 25.0181 36.5052 25.0181 36.5052C25.0181 36.5052 25.0181 36.5052 25.0181 36.5052C25.0181 36.5052 25.0181 36.5052 25.0181 36.5052C25.0181 36.5052 25.0181 36.5052 25.0181 36.5052C25.0181 36.5052 25.0181 36.5052 25.0181 36.5052C25.0181 36.5052 25.0181 36.5052 25.0181 36.5052C25.0181 36.5052 25.0181 36.5052 25.0181 36.5052C25.0181 36.5052 25.0181 36.5052 25.0181 36.5052C25.0181 36.5052 25.0181 36.5052 25.0181 36.5052C25.0181 36.5052 25.0181 36.5052 25.0181 36.5052C25.0181 36.5052 25.0181 36.5052 25.0181 36.5052C25.0181 36.5052 25.0181 36.5052 25.0181 36.5052C25.0181 36.5052 25.0181 36.5052 25.0181 36.5052C25.0181 36.5052 25.0181 36.5052 25.0181 36.5052C25.0181 36.5052 25.0181 36.5052 25.0181 36.5052C25.0181 36.5052 25.0181 36.5052 25.0182 36.5052H25.0182C25.0182 36.5052 25.0182 36.5052 25.0182 36.5052C25.0182 36.5052 25.0182 36.5052 25.0182 36.5052C25.0182 36.5052 25.0182 36.5052 25.0182 36.5052C25.0182 36.5052 25.0182 36.5052 25.0182 36.5052C25.0182 36.5052 25.0182 36.5052 25.0182 36.5052C25.0182 36.5052 25.0182 36.5052 25.0182 36.5052C25.0182 36.5052 25.0182 36.5052 25.0182 36.5052C25.0182 36.5052 25.0182 36.5052 25.0182 36.5052C25.0182 36.5052 25.0182 36.5052 25.0182 36.5052C25.0182 36.5052 25.0182 36.5052 25.0182 36.5052C25.0182 36.5052 25.0182 36.5052 25.0182 36.5052C25.0182 36.5052 25.0182 36.5052 25.0182 36.5052C25.0182 36.5052 25.0182 36.5052 25.0182 36.5052C25.0182 36.5052 25.0182 36.5052 25.0182 36.5052C25.0182 36.5052 25.0182 36.5052 25.0182 36.5052C25.0182 36.5052 25.0182 36.5052 25.0182 36.5052C25.0182 36.5052 25.0182 36.5052 25.0182 36.5052C25.0182 36.5052 25.0182 36.5052 25.0182 36.5052H25.0182C25.0182 36.5052 25.0182 36.5052 25.0182 36.5052C25.0182 36.5052 25.0182 36.5052 25.0182 36.5052C25.0182 36.5052 25.0182 36.5052 25.0182 36.5052C25.0182 36.5052 25.0182 36.5052 25.0182 36.5052C25.0182 36.5052 25.0182 36.5052 25.0182 36.5052C25.0182 36.5052 25.0182 36.5052 25.0182 36.5052C25.0182 36.5052 25.0182 36.5052 25.0182 36.5052C25.0183 36.5052 25.0183 36.5052 25.0183 36.5052C25.0183 36.5052 25.0183 36.5052 25.0183 36.5052C25.0183 36.5052 25.0183 36.5052 25.0183 36.5052C25.0183 36.5052 25.0183 36.5052 25.0183 36.5052C25.0183 36.5052 25.0183 36.5052 25.0183 36.5052C25.0183 36.5052 25.0183 36.5052 25.0183 36.5052C25.0183 36.5052 25.0183 36.5052 25.0183 36.5052H25.0183C25.0183 36.5052 25.0183 36.5052 25.0183 36.5052C25.0183 36.5052 25.0183 36.5052 25.0183 36.5052C25.0183 36.5052 25.0183 36.5052 25.0183 36.5052C25.0183 36.5052 25.0183 36.5052 25.0183 36.5052C25.0183 36.5052 25.0183 36.5052 25.0183 36.5052C25.0183 36.5052 25.0183 36.5052 25.0183 36.5052C25.0183 36.5052 25.0183 36.5052 25.0183 36.5052C25.0183 36.5052 25.0183 36.5052 25.0183 36.5052C25.0183 36.5052 25.0183 36.5052 25.0183 36.5052C25.0183 36.5052 25.0183 36.5052 25.0183 36.5052C25.0183 36.5052 25.0183 36.5052 25.0183 36.5052C25.0183 36.5052 25.0183 36.5052 25.0183 36.5052H25.0183C25.0183 36.5052 25.0183 36.5052 25.0183 36.5052C25.0183 36.5052 25.0183 36.5052 25.0183 36.5052C25.0183 36.5052 25.0183 36.5052 25.0183 36.5052C25.0183 36.5052 25.0183 36.5052 25.0183 36.5052C25.0183 36.5052 25.0183 36.5052 25.0183 36.5052C25.0183 36.5052 25.0183 36.5052 25.0183 36.5052C25.0184 36.5052 25.0184 36.5052 25.0184 36.5052C25.0184 36.5052 25.0184 36.5052 25.0184 36.5052C25.0184 36.5052 25.0184 36.5052 25.0184 36.5052C25.0184 36.5052 25.0184 36.5052 25.0184 36.5052H25.0184C25.0184 36.5052 25.0184 36.5052 25.0184 36.5052C25.0184 36.5052 25.0184 36.5052 25.0184 36.5052C25.0184 36.5052 25.0184 36.5052 25.0184 36.5052C25.0184 36.5052 25.0184 36.5052 25.0184 36.5052C25.0184 36.5052 25.0184 36.5052 25.0184 36.5052C25.0184 36.5052 25.0184 36.5052 25.0184 36.5052C25.0184 36.5052 25.0184 36.5052 25.0184 36.5052C25.0184 36.5052 25.0184 36.5052 25.0184 36.5052C25.0184 36.5052 25.0184 36.5052 25.0184 36.5052C25.0184 36.5052 25.0184 36.5052 25.0184 36.5052H25.0184C25.0184 36.5052 25.0184 36.5052 25.0184 36.5052C25.0184 36.5052 25.0184 36.5052 25.0184 36.5052C25.0184 36.5052 25.0184 36.5052 25.0184 36.5052C25.0184 36.5052 25.0184 36.5052 25.0184 36.5052C25.0184 36.5052 25.0184 36.5052 25.0184 36.5052C25.0184 36.5052 25.0184 36.5052 25.0184 36.5052C25.0184 36.5052 25.0184 36.5052 25.0184 36.5052C25.0184 36.5052 25.0184 36.5052 25.0184 36.5052C25.0184 36.5052 25.0184 36.5052 25.0184 36.5052H25.0184C25.0184 36.5052 25.0184 36.5052 25.0184 36.5052C25.0184 36.5052 25.0184 36.5052 25.0184 36.5052C25.0185 36.5052 25.0185 36.5052 25.0185 36.5052C25.0185 36.5052 25.0185 36.5052 25.0185 36.5052C25.0185 36.5052 25.0185 36.5052 25.0185 36.5052C25.0185 36.5052 25.0185 36.5052 25.0185 36.5052C25.0185 36.5052 25.0185 36.5052 25.0185 36.5052C25.0185 36.5052 25.0185 36.5052 25.0185 36.5052H25.0185C25.0185 36.5052 25.0185 36.5052 25.0185 36.5052C25.0185 36.5052 25.0185 36.5052 25.0185 36.5052C25.0185 36.5052 25.0185 36.5052 25.0185 36.5052C25.0185 36.5052 25.0185 36.5052 25.0185 36.5052C25.0185 36.5052 25.0185 36.5052 25.0185 36.5052C25.0185 36.5052 25.0185 36.5052 25.0185 36.5052C25.0185 36.5052 25.0185 36.5052 25.0185 36.5052C25.0185 36.5052 25.0185 36.5052 25.0185 36.5052H25.0185C25.0185 36.5052 25.0185 36.5052 25.0185 36.5052C25.0185 36.5052 25.0185 36.5052 25.0185 36.5052C25.0185 36.5052 25.0185 36.5052 25.0185 36.5052C25.0185 36.5052 25.0185 36.5052 25.0185 36.5052C25.0185 36.5052 25.0185 36.5052 25.0185 36.5052C25.0185 36.5052 25.0185 36.5052 25.0185 36.5052C25.0185 36.5052 25.0185 36.5052 25.0185 36.5052C25.0185 36.5052 25.0185 36.5052 25.0185 36.5052H25.0185C25.0185 36.5052 25.0185 36.5052 25.0185 36.5052C25.0185 36.5052 25.0185 36.5052 25.0185 36.5052C25.0185 36.5052 25.0185 36.5052 25.0186 36.5052C25.0186 36.5052 25.0186 36.5052 25.0186 36.5052C25.0186 36.5052 25.0186 36.5052 25.0186 36.5052C25.0186 36.5052 25.0186 36.5052 25.0186 36.5052C25.0186 36.5052 25.0186 36.5052 25.0186 36.5052H25.0186C25.0186 36.5052 25.0186 36.5052 25.0186 36.5052C25.0186 36.5052 25.0186 36.5052 25.0186 36.5052C25.0186 36.5052 25.0186 36.5052 25.0186 36.5052C25.0186 36.5052 25.0186 36.5052 25.0186 36.5052C25.0186 36.5052 25.0186 36.5052 25.0186 36.5052C25.0186 36.5052 25.0186 36.5052 25.0186 36.5052H25.0186C25.0186 36.5052 25.0186 36.5052 25.0186 36.5052C25.0186 36.5052 25.0186 36.5052 25.0186 36.5052C25.0186 36.5052 25.0186 36.5052 25.0186 36.5052C25.0186 36.5052 25.0186 36.5052 25.0186 36.5052C25.0186 36.5052 25.0186 36.5052 25.0186 36.5052C25.0186 36.5052 25.0186 36.5052 25.0186 36.5052C25.0186 36.5052 25.0186 36.5052 25.0186 36.5052H25.0186C25.0186 36.5052 25.0186 36.5052 25.0186 36.5052C25.0186 36.5052 25.0186 36.5052 25.0186 36.5052C25.0186 36.5052 25.0186 36.5052 25.0186 36.5052C25.0186 36.5052 25.0186 36.5052 25.0186 36.5052C25.0186 36.5052 25.0186 36.5052 25.0186 36.5052C25.0186 36.5052 25.0186 36.5052 25.0186 36.5052H25.0186C25.0186 36.5052 25.0187 36.5052 25.0187 36.5052C25.0187 36.5052 25.0187 36.5052 25.0187 36.5052C25.0187 36.5052 25.0187 36.5052 25.0187 36.5052C25.0187 36.5052 25.0187 36.5052 25.0187 36.5052C25.0187 36.5052 25.0187 36.5052 25.0187 36.5052C25.0187 36.5052 25.0187 36.5052 25.0187 36.5052C25.0187 36.5052 25.0187 36.5052 25.0187 36.5052H25.0187C25.0187 36.5052 25.0187 36.5052 25.0187 36.5052C25.0187 36.5052 25.0187 36.5052 25.0187 36.5052C25.0187 36.5052 25.0187 36.5052 25.0187 36.5052C25.0187 36.5052 25.0187 36.5052 25.0187 36.5052C25.0187 36.5052 25.0187 36.5052 25.0187 36.5052C25.0187 36.5052 25.0187 36.5052 25.0187 36.5052H25.0187C25.0187 36.5052 25.0187 36.5052 25.0187 36.5052C25.0187 36.5052 25.0187 36.5052 25.0187 36.5052C25.0187 36.5052 25.0187 36.5052 25.0187 36.5052C25.0187 36.5052 25.0187 36.5052 25.0187 36.5052C25.0187 36.5052 25.0187 36.5052 25.0187 36.5052H25.0187C25.0187 36.5052 25.0187 36.5052 25.0187 36.5052C25.0187 36.5052 25.0187 36.5052 25.0187 36.5052C25.0187 36.5052 25.0187 36.5052 25.0187 36.5052C25.0187 36.5052 25.0187 36.5052 25.0187 36.5052C25.0187 36.5052 25.0187 36.5052 25.0187 36.5052C25.0187 36.5052 25.0187 36.5052 25.0187 36.5052H25.0187C25.0187 36.5052 25.0187 36.5052 25.0187 36.5052C25.0188 36.5052 25.0188 36.5052 25.0188 36.5052C25.0188 36.5052 25.0188 36.5052 25.0188 36.5052C25.0188 36.5052 25.0188 36.5052 25.0188 36.5052C25.0188 36.5052 25.0188 36.5052 25.0188 36.5052C25.0188 36.5052 25.0188 36.5052 25.0188 36.5052H25.0188C25.0188 36.5052 25.0188 36.5052 25.0188 36.5052C25.0188 36.5052 25.0188 36.5052 25.0188 36.5052C25.0188 36.5052 25.0188 36.5052 25.0188 36.5052C25.0188 36.5052 25.0188 36.5052 25.0188 36.5052C25.0188 36.5052 25.0188 36.5052 25.0188 36.5052H25.0188C25.0188 36.5052 25.0188 36.5052 25.0188 36.5052C25.0188 36.5052 25.0188 36.5052 25.0188 36.5052C25.0188 36.5052 25.0188 36.5052 25.0188 36.5052C25.0188 36.5052 25.0188 36.5052 25.0188 36.5052C25.0188 36.5052 25.0188 36.5052 25.0188 36.5052H25.0188C25.0188 36.5052 25.0188 36.5052 25.0188 36.5052C25.0188 36.5052 25.0188 36.5052 25.0188 36.5052C25.0188 36.5052 25.0188 36.5052 25.0188 36.5052C25.0188 36.5052 25.0188 36.5052 25.0188 36.5052C25.0188 36.5052 25.0188 36.5052 25.0188 36.5052H25.0188C25.0188 36.5052 25.0188 36.5052 25.0188 36.5052C25.0188 36.5052 25.0188 36.5052 25.0188 36.5052C25.0188 36.5052 25.0188 36.5052 25.0188 36.5052C25.0188 36.5052 25.0188 36.5052 25.0188 36.5052C25.0188 36.5052 25.0189 36.5052 25.0189 36.5052H25.0189C25.0189 36.5052 25.0189 36.5052 25.0189 36.5052C25.0189 36.5052 25.0189 36.5052 25.0189 36.5052C25.0189 36.5052 25.0189 36.5052 25.0189 36.5052C25.0189 36.5052 25.0189 36.5052 25.0189 36.5052C25.0189 36.5052 25.0189 36.5052 25.0189 36.5052C25.0189 36.5052 25.0189 36.5052 25.0189 36.5052H25.0189C25.0189 36.5052 25.0189 36.5052 25.0189 36.5052C25.0189 36.5052 25.0189 36.5052 25.0189 36.5052C25.0189 36.5052 25.0189 36.5052 25.0189 36.5052C25.0189 36.5052 25.0189 36.5052 25.0189 36.5052H25.0189C25.0189 36.5052 25.0189 36.5052 25.0189 36.5052C25.0189 36.5052 25.0189 36.5052 25.0189 36.5052C25.0189 36.5052 25.0189 36.5052 25.0189 36.5052C25.0189 36.5052 25.0189 36.5052 25.0189 36.5052C25.0189 36.5052 25.0189 36.5052 25.0189 36.5052H25.0189C25.0189 36.5052 25.0189 36.5052 25.0189 36.5052C25.0189 36.5052 25.0189 36.5052 25.0189 36.5052C25.0189 36.5052 25.0189 36.5052 25.0189 36.5052C25.0189 36.5052 25.0189 36.5052 25.0189 36.5052C25.0189 36.5052 25.0189 36.5052 25.0189 36.5052H25.0189C25.0189 36.5052 25.0189 36.5052 25.0189 36.5052C25.0189 36.5052 25.0189 36.5052 25.0189 36.5052C25.0189 36.5052 25.0189 36.5052 25.0189 36.5052C25.019 36.5052 25.019 36.5052 25.019 36.5052C25.019 36.5052 25.019 36.5052 25.019 36.5052H25.019C25.019 36.5052 25.019 36.5052 25.019 36.5052C25.019 36.5052 25.019 36.5052 25.019 36.5052C25.019 36.5052 25.019 36.5052 25.019 36.5052C25.019 36.5052 25.019 36.5052 25.019 36.5052H25.019C25.019 36.5052 25.019 36.5052 25.019 36.5052C25.019 36.5052 25.019 36.5052 25.019 36.5052C25.019 36.5052 25.019 36.5052 25.019 36.5052C25.019 36.5052 25.019 36.5052 25.019 36.5052C25.019 36.5052 25.019 36.5052 25.019 36.5052H25.019C25.019 36.5052 25.019 36.5052 25.019 36.5052C25.019 36.5052 25.019 36.5052 25.019 36.5052C25.019 36.5052 25.019 36.5052 25.019 36.5052C25.019 36.5052 25.019 36.5052 25.019 36.5052C25.019 36.5052 25.019 36.5052 25.019 36.5052H25.019C25.019 36.5052 25.019 36.5052 25.019 36.5052C25.019 36.5052 25.019 36.5052 25.019 36.5052C25.019 36.5052 25.019 36.5052 25.019 36.5052C25.019 36.5052 25.019 36.5052 25.019 36.5052H25.019C25.019 36.5052 25.019 36.5052 25.019 36.5052C25.019 36.5052 25.019 36.5052 25.019 36.5052C25.019 36.5052 25.019 36.5052 25.019 36.5052C25.019 36.5052 25.019 36.5052 25.0191 36.5052C25.0191 36.5052 25.0191 36.5052 25.0191 36.5052H25.0191C25.0191 36.5052 25.0191 36.5052 25.0191 36.5052C25.0191 36.5052 25.0191 36.5052 25.0191 36.5052C25.0191 36.5052 25.0191 36.5052 25.0191 36.5052C25.0191 36.5052 25.0191 36.5052 25.0191 36.5052H25.0191C25.0191 36.5052 25.0191 36.5052 25.0191 36.5052C25.0191 36.5052 25.0191 36.5052 25.0191 36.5052C25.0191 36.5052 25.0191 36.5052 25.0191 36.5052C25.0191 36.5052 25.0191 36.5052 25.0191 36.5052H25.0191C25.0191 36.5052 25.0191 36.5052 25.0191 36.5052C25.0191 36.5052 25.0191 36.5052 25.0191 36.5052C25.0191 36.5052 25.0191 36.5052 25.0191 36.5052C25.0191 36.5052 25.0191 36.5052 25.0191 36.5052C25.0191 36.5052 25.0191 36.5052 25.0191 36.5052H25.0191C25.0191 36.5052 25.0191 36.5052 25.0191 36.5052C25.0191 36.5052 25.0191 36.5052 25.0191 36.5052C25.0191 36.5052 25.0191 36.5052 25.0191 36.5052C25.0191 36.5052 25.0191 36.5052 25.0191 36.5052H25.0191C25.0191 36.5052 25.0191 36.5052 25.0191 36.5052C25.0191 36.5052 25.0191 36.5052 25.0191 36.5052C25.0191 36.5052 25.0191 36.5052 25.0191 36.5052C25.0191 36.5052 25.0191 36.5052 25.0191 36.5052H25.0191C25.0191 36.5052 25.0191 36.5052 25.0191 36.5052C25.0192 36.5052 25.0192 36.5052 25.0192 36.5052C25.0192 36.5052 25.0192 36.5052 25.0192 36.5052C25.0192 36.5052 25.0192 36.5052 25.0192 36.5052H25.0192C25.0192 36.5052 25.0192 36.5052 25.0192 36.5052C25.0192 36.5052 25.0192 36.5052 25.0192 36.5052C25.0192 36.5052 25.0192 36.5052 25.0192 36.5052C25.0192 36.5052 25.0192 36.5052 25.0192 36.5052C25.0192 36.5052 25.0192 36.5052 25.0192 36.5052H25.0192C25.0192 36.5052 25.0192 36.5052 25.0192 36.5052C25.0192 36.5052 25.0192 36.5052 25.0192 36.5052C25.0192 36.5052 25.0192 36.5052 25.0192 36.5052C25.0192 36.5052 25.0192 36.5052 25.0192 36.5052H25.0192C25.0192 36.5052 25.0192 36.5052 25.0192 36.5052C25.0192 36.5052 25.0192 36.5052 25.0192 36.5052C25.0192 36.5052 25.0192 36.5052 25.0192 36.5052C25.0192 36.5052 25.0192 36.5052 25.0192 36.5052H25.0192C25.0192 36.5052 25.0192 36.5052 25.0192 36.5052C25.0192 36.5052 25.0192 36.5052 25.0192 36.5052C25.0192 36.5052 25.0192 36.5052 25.0192 36.5052C25.0192 36.5052 25.0192 36.5052 25.0192 36.5052H25.0192C25.0192 36.5052 25.0192 36.5052 25.0192 36.5052C25.0192 36.5052 25.0192 36.5052 25.0192 36.5052C25.0192 36.5052 25.0192 36.5052 25.0192 36.5052C25.0192 36.5052 25.0192 36.5052 25.0193 36.5052H25.0193C25.0193 36.5052 25.0193 36.5052 25.0193 36.5052C25.0193 36.5052 25.0193 36.5052 25.0193 36.5052C25.0193 36.5052 25.0193 36.5052 25.0193 36.5052C25.0193 36.5052 25.0193 36.5052 25.0193 36.5052H25.0193C25.0193 36.5052 25.0193 36.5052 25.0193 36.5052C25.0193 36.5052 25.0193 36.5052 25.0193 36.5052C25.0193 36.5052 25.0193 36.5052 25.0193 36.5052C25.0193 36.5052 25.0193 36.5052 25.0193 36.5052H25.0193C25.0193 36.5052 25.0193 36.5052 25.0193 36.5052C25.0193 36.5052 25.0193 36.5052 25.0193 36.5052C25.0193 36.5052 25.0193 36.5052 25.0193 36.5052C25.0193 36.5052 25.0193 36.5052 25.0193 36.5052C25.0193 36.5052 25.0193 36.5052 25.0193 36.5052H25.0193C25.0193 36.5052 25.0193 36.5052 25.0193 36.5052C25.0193 36.5052 25.0193 36.5052 25.0193 36.5052C25.0193 36.5052 25.0193 36.5052 25.0193 36.5052C25.0193 36.5052 25.0193 36.5052 25.0193 36.5052H25.0193C25.0193 36.5052 25.0193 36.5052 25.0193 36.5052C25.0193 36.5052 25.0193 36.5052 25.0193 36.5052C25.0193 36.5052 25.0193 36.5052 25.0193 36.5052C25.0193 36.5052 25.0193 36.5052 25.0193 36.5052H25.0193C25.0193 36.5052 25.0193 36.5052 25.0193 36.5052C25.0193 36.5052 25.0193 36.5052 25.0194 36.5052C25.0194 36.5052 25.0194 36.5052 25.0194 36.5052C25.0194 36.5052 25.0194 36.5052 25.0194 36.5052H25.0194C25.0194 36.5052 25.0194 36.5052 25.0194 36.5052C25.0194 36.5052 25.0194 36.5052 25.0194 36.5052C25.0194 36.5052 25.0194 36.5052 25.0194 36.5052C25.0194 36.5052 25.0194 36.5052 25.0194 36.5052H25.0194C25.0194 36.5052 25.0194 36.5052 25.0194 36.5052C25.0194 36.5052 25.0194 36.5052 25.0194 36.5052C25.0194 36.5052 25.0194 36.5052 25.0194 36.5052C25.0194 36.5052 25.0194 36.5052 25.0194 36.5052H25.0194C25.0194 36.5052 25.0194 36.5052 25.0194 36.5052C25.0194 36.5052 25.0194 36.5052 25.0194 36.5052C25.0194 36.5052 25.0194 36.5052 25.0194 36.5052C25.0194 36.5052 25.0194 36.5052 25.0194 36.5052H25.0194C25.0194 36.5052 25.0194 36.5052 25.0194 36.5052C25.0194 36.5052 25.0194 36.5052 25.0194 36.5052C25.0194 36.5052 25.0194 36.5052 25.0194 36.5052C25.0194 36.5052 25.0194 36.5052 25.0194 36.5052H25.0194C25.0194 36.5052 25.0194 36.5052 25.0194 36.5052C25.0194 36.5052 25.0194 36.5052 25.0194 36.5052C25.0194 36.5052 25.0194 36.5052 25.0194 36.5052C25.0194 36.5052 25.0194 36.5052 25.0194 36.5052V30.5052ZM25.0176 30.5052C25.4291 30.5052 25.824 30.6705 26.113 30.9648L21.8325 35.1693C22.6723 36.0243 23.8202 36.5052 25.0176 36.5052V30.5052ZM26.1126 30.9644L21.7216 26.4957L17.4419 30.7009L21.8329 35.1697L26.1126 30.9644ZM21.7216 26.4957C22.3157 27.1004 22.3074 28.0723 21.7025 28.6667L17.4973 24.3869C15.7383 26.1153 15.7138 28.9421 17.4419 30.7009L21.7216 26.4957ZM21.7023 28.6669C21.0977 29.2608 20.1258 29.2524 19.5315 28.6476L23.8113 24.4424C22.0832 22.6836 19.2566 22.6586 17.4975 24.3867L21.7023 28.6669ZM19.5315 28.6476L21.4129 30.5623L25.6926 26.357L23.8112 24.4423L19.5315 28.6476ZM26.5527 28.4596V17.8162H20.5527V28.4596H26.5527ZM26.5527 17.8162C26.5527 18.664 25.8655 19.3513 25.0176 19.3513V13.3513C22.5517 13.3513 20.5527 15.3503 20.5527 17.8162H26.5527ZM25.0176 19.3513C24.1697 19.3513 23.4824 18.664 23.4824 17.8162H29.4824C29.4824 15.3503 27.4834 13.3513 25.0176 13.3513V19.3513ZM23.4824 17.8162V28.4468H29.4824V17.8162H23.4824ZM28.6276 30.5441L30.4844 28.6449L26.1941 24.4504L24.3373 26.3496L28.6276 30.5441ZM30.4844 28.6449C29.8917 29.251 28.9198 29.2622 28.3135 28.6694L32.508 24.3792C30.7447 22.6551 27.9179 22.6873 26.1942 24.4503L30.4844 28.6449ZM28.3138 28.6697C27.707 28.0766 27.6966 27.1045 28.2889 26.4986L32.5795 30.6928C34.3029 28.9298 34.2715 26.1028 32.5077 24.3788L28.3138 28.6697Z" fill="url(#paint0_linear_0_355)" mask="url(#path-1-inside-1_0_355)"/>
<path d="M47.4574 12.5694L47.4574 12.5694L47.4574 12.5694ZM45.0969 14.0084L45.0969 14.0083L45.0969 14.0084Z" stroke="url(#paint1_linear_0_355)" stroke-width="3"/>
<mask id="path-4-inside-2_0_355" fill="white">
<path d="M1.81187 13.8697L4.20748 15.2476C4.43765 15.38 4.68873 15.4429 4.93648 15.4429C5.44351 15.4429 5.93668 15.1792 6.20758 14.7082C6.6109 14.007 6.36949 13.1115 5.66822 12.7081L3.27261 11.3302C2.57134 10.9268 1.67584 11.1684 1.27252 11.8696C0.869099 12.5708 1.11051 13.4663 1.81187 13.8697Z"/>
</mask>
<path d="M4.20748 15.2476L5.70349 12.6472L5.70327 12.6471L4.20748 15.2476ZM6.20758 14.7082L8.80811 16.204L8.80815 16.2039L6.20758 14.7082ZM5.66822 12.7081L4.17243 15.3086L4.17255 15.3087L5.66822 12.7081ZM3.27261 11.3302L1.77668 13.9306L1.77683 13.9307L3.27261 11.3302ZM1.27252 11.8696L3.87294 13.3655L3.873 13.3654L1.27252 11.8696ZM0.316086 16.4702L2.71169 17.8481L5.70327 12.6471L3.30766 11.2692L0.316086 16.4702ZM2.71146 17.848C3.40899 18.2493 4.17799 18.4429 4.93648 18.4429V12.4429C5.19947 12.4429 5.46631 12.5108 5.70349 12.6472L2.71146 17.848ZM4.93648 18.4429C6.47293 18.4429 7.98031 17.6432 8.80811 16.204L3.60704 13.2125C3.89304 12.7153 4.4141 12.4429 4.93648 12.4429V18.4429ZM8.80815 16.2039C10.0372 14.0668 9.30187 11.3372 7.16389 10.1076L4.17255 15.3087C3.43711 14.8857 3.18456 13.9471 3.607 13.2126L8.80815 16.2039ZM7.16401 10.1076L4.7684 8.72971L1.77683 13.9307L4.17243 15.3086L7.16401 10.1076ZM4.76855 8.7298C2.63081 7.50002 -0.0986469 8.23657 -1.32797 10.3737L3.873 13.3654C3.45032 14.1002 2.51188 14.3536 1.77668 13.9306L4.76855 8.7298ZM-1.3279 10.3736C-2.5574 12.5109 -1.82183 15.2408 0.316363 16.4703L3.30738 11.269C4.04284 11.6919 4.29559 12.6308 3.87294 13.3655L-1.3279 10.3736Z" fill="url(#paint2_linear_0_355)" mask="url(#path-4-inside-2_0_355)"/>
<mask id="path-6-inside-3_0_355" fill="white">
<path d="M4.65587 27.8245L1.98477 28.5338C1.20284 28.7414 0.737313 29.5435 0.94493 30.3255C1.11915 30.9814 1.71163 31.4147 2.35977 31.4147C2.48419 31.4147 2.61075 31.3987 2.73663 31.3653L5.40772 30.656C6.18966 30.4484 6.65519 29.6463 6.44757 28.8643C6.23995 28.0824 5.43751 27.6171 4.65587 27.8245Z"/>
</mask>
<path d="M4.65587 27.8245L3.8864 24.9249L3.88594 24.925L4.65587 27.8245ZM1.98477 28.5338L2.75465 31.4333L2.75471 31.4333L1.98477 28.5338ZM0.94493 30.3255L-1.9546 31.0954L-1.95455 31.0956L0.94493 30.3255ZM2.73663 31.3653L3.50598 34.265L3.50656 34.2648L2.73663 31.3653ZM5.40772 30.656L4.63785 27.7565L4.63779 27.7565L5.40772 30.656ZM3.88594 24.925L1.21484 25.6343L2.75471 31.4333L5.4258 30.724L3.88594 24.925ZM1.2149 25.6342C-1.16848 26.2671 -2.58739 28.7121 -1.9546 31.0954L3.84446 29.5556C4.06202 30.375 3.57416 31.2157 2.75465 31.4333L1.2149 25.6342ZM-1.95455 31.0956C-1.42254 33.0986 0.385206 34.4147 2.35977 34.4147V28.4147C3.03805 28.4147 3.66084 28.8642 3.84441 29.5554L-1.95455 31.0956ZM2.35977 34.4147C2.74219 34.4147 3.12743 34.3654 3.50598 34.265L1.96728 28.4656C2.09407 28.432 2.22618 28.4147 2.35977 28.4147V34.4147ZM3.50656 34.2648L6.17766 33.5556L4.63779 27.7565L1.9667 28.4658L3.50656 34.2648ZM6.1776 33.5556C8.56097 32.9227 9.97989 30.4777 9.3471 28.0945L3.54804 29.6342C3.33048 28.8149 3.81834 27.9741 4.63785 27.7565L6.1776 33.5556ZM9.3471 28.0945C8.71406 25.7103 6.26827 24.2928 3.8864 24.9249L5.42534 30.7241C4.60675 30.9414 3.76584 30.4545 3.54804 29.6342L9.3471 28.0945Z" fill="url(#paint3_linear_0_355)" mask="url(#path-6-inside-3_0_355)"/>
<path d="M16.7979 3.91482C16.7979 3.91483 16.7979 3.91485 16.7979 3.91486L16.7979 3.91482Z" stroke="url(#paint4_linear_0_355)" stroke-width="3"/>
<mask id="path-9-inside-4_0_355" fill="white">
<path d="M32.5822 5.23756C32.7943 5.34498 33.0202 5.39596 33.2428 5.39596C33.7775 5.39596 34.2927 5.10221 34.5507 4.59264L35.7993 2.12721C36.1649 1.40543 35.8761 0.524083 35.1543 0.158555C34.4326 -0.206874 33.5512 0.0817975 33.1857 0.803575L31.937 3.269C31.5717 3.99068 31.8605 4.87213 32.5822 5.23756Z"/>
</mask>
<path d="M34.5507 4.59264L31.8744 3.23719L31.8742 3.23747L34.5507 4.59264ZM35.7993 2.12721L38.4757 3.48265L38.4757 3.48259L35.7993 2.12721ZM35.1543 0.158555L36.5097 -2.51781L36.5096 -2.51788L35.1543 0.158555ZM33.1857 0.803575L35.862 2.15902L35.862 2.15896L33.1857 0.803575ZM31.937 3.269L29.2607 1.91356L29.2605 1.91405L31.937 3.269ZM31.2267 7.91391C31.8681 8.23871 32.5596 8.39596 33.2428 8.39596V2.39596C33.4809 2.39596 33.7204 2.45125 33.9376 2.56121L31.2267 7.91391ZM33.2428 8.39596C34.8641 8.39596 36.4387 7.50514 37.2272 5.9478L31.8742 3.23747C32.1467 2.69927 32.6908 2.39596 33.2428 2.39596V8.39596ZM37.227 5.94808L38.4757 3.48265L33.123 0.771761L31.8744 3.23719L37.227 5.94808ZM38.4757 3.48259C39.5898 1.28269 38.7096 -1.40373 36.5097 -2.51781L33.7989 2.83492C33.0426 2.45189 32.7399 1.52817 33.123 0.771825L38.4757 3.48259ZM36.5096 -2.51788C34.3101 -3.63159 31.6235 -2.75199 30.5093 -0.551808L35.862 2.15896C35.4789 2.91558 34.5552 3.21784 33.7991 2.83499L36.5096 -2.51788ZM30.5093 -0.551872L29.2607 1.91356L34.6134 4.62445L35.862 2.15902L30.5093 -0.551872ZM29.2605 1.91405C28.1471 4.11348 29.0268 6.79995 31.2269 7.914L33.9374 2.56112C34.6941 2.94431 34.9964 3.86789 34.6136 4.62396L29.2605 1.91405Z" fill="url(#paint5_linear_0_355)" mask="url(#path-9-inside-4_0_355)"/>
<path d="M10.6638 43.6546L10.6638 43.6546L10.6638 43.6546Z" stroke="url(#paint6_linear_0_355)" stroke-width="3"/>
<path d="M24.9712 45.7715V45.7716C24.9712 45.7716 24.9712 45.7715 24.9712 45.7715Z" stroke="url(#paint7_linear_0_355)" stroke-width="3"/>
<path d="M39.2903 43.6863L39.2903 43.6863C39.2903 43.6863 39.2903 43.6863 39.2903 43.6863ZM39.2903 43.6863C39.2903 43.6863 39.2903 43.6863 39.2903 43.6863M39.2903 43.6863L39.2903 43.6863M39.2903 43.6863C39.2903 43.6863 39.2902 43.6863 39.2902 43.6863L39.2903 43.6863Z" stroke="url(#paint8_linear_0_355)" stroke-width="3"/>
<mask id="path-14-inside-5_0_355" fill="white">
<path d="M48.0155 28.5336L45.3445 27.8244C44.5628 27.6166 43.7604 28.0823 43.5528 28.8642C43.3452 29.6461 43.8107 30.4483 44.5927 30.6559L47.2637 31.3652C47.3897 31.3987 47.516 31.4146 47.6405 31.4146C48.2886 31.4146 48.8812 30.9813 49.0554 30.3253C49.263 29.5435 48.7975 28.7413 48.0155 28.5336Z"/>
</mask>
<path d="M48.0155 28.5336L47.2456 31.4331L47.2457 31.4332L48.0155 28.5336ZM45.3445 27.8244L44.5741 30.7238L44.5746 30.7239L45.3445 27.8244ZM43.5528 28.8642L46.4524 29.6341L46.4525 29.6337L43.5528 28.8642ZM44.5927 30.6559L45.3626 27.7564L45.3626 27.7564L44.5927 30.6559ZM47.2637 31.3652L48.0346 28.4659L48.0336 28.4657L47.2637 31.3652ZM49.0554 30.3253L51.9548 31.0954L51.9549 31.0953L49.0554 30.3253ZM48.7855 25.6341L46.1145 24.9248L44.5746 30.7239L47.2456 31.4331L48.7855 25.6341ZM46.1149 24.925C43.7316 24.2917 41.2858 25.711 40.6532 28.0947L46.4525 29.6337C46.2349 30.4536 45.394 30.9416 44.5741 30.7238L46.1149 24.925ZM40.6533 28.0943C40.0205 30.4775 41.4394 32.9226 43.8228 33.5554L45.3626 27.7564C46.1821 27.974 46.6699 28.8147 46.4524 29.6341L40.6533 28.0943ZM43.8227 33.5554L46.4937 34.2647L48.0336 28.4657L45.3626 27.7564L43.8227 33.5554ZM46.4928 34.2645C46.8735 34.3657 47.2591 34.4146 47.6405 34.4146V28.4146C47.7729 28.4146 47.9058 28.4317 48.0346 28.4659L46.4928 34.2645ZM47.6405 34.4146C49.6149 34.4146 51.4228 33.0986 51.9548 31.0954L46.1559 29.5553C46.3395 28.864 46.9623 28.4146 47.6405 28.4146V34.4146ZM51.9549 31.0953C52.5877 28.7122 51.1688 26.267 48.7854 25.6341L47.2457 31.4332C46.4261 31.2156 45.9383 30.3748 46.1559 29.5554L51.9549 31.0953Z" fill="url(#paint9_linear_0_355)" mask="url(#path-14-inside-5_0_355)"/>
</g>
<defs>
<linearGradient id="paint0_linear_0_355" x1="25.0067" y1="6.52942" x2="25.0067" y2="43.3271" gradientUnits="userSpaceOnUse">
<stop stop-color="#FFA800"/>
<stop offset="0.510417" stop-color="#FFCE6F"/>
<stop offset="1" stop-color="#FFA800"/>
</linearGradient>
<linearGradient id="paint1_linear_0_355" x1="46.2771" y1="11.1349" x2="46.2771" y2="15.4429" gradientUnits="userSpaceOnUse">
<stop stop-color="#FFA800"/>
<stop offset="0.510417" stop-color="#FFCE6F"/>
<stop offset="1" stop-color="#FFA800"/>
</linearGradient>
<linearGradient id="paint2_linear_0_355" x1="3.74001" y1="11.1349" x2="3.74001" y2="15.4429" gradientUnits="userSpaceOnUse">
<stop stop-color="#FFA800"/>
<stop offset="0.510417" stop-color="#FFCE6F"/>
<stop offset="1" stop-color="#FFA800"/>
</linearGradient>
<linearGradient id="paint3_linear_0_355" x1="3.69625" y1="27.7751" x2="3.69625" y2="31.4147" gradientUnits="userSpaceOnUse">
<stop stop-color="#FFA800"/>
<stop offset="0.510417" stop-color="#FFCE6F"/>
<stop offset="1" stop-color="#FFA800"/>
</linearGradient>
<linearGradient id="paint4_linear_0_355" x1="16.1422" y1="0" x2="16.1422" y2="5.39586" gradientUnits="userSpaceOnUse">
<stop stop-color="#FFA800"/>
<stop offset="0.510417" stop-color="#FFCE6F"/>
<stop offset="1" stop-color="#FFA800"/>
</linearGradient>
<linearGradient id="paint5_linear_0_355" x1="33.8683" y1="0.000244141" x2="33.8683" y2="5.39596" gradientUnits="userSpaceOnUse">
<stop stop-color="#FFA800"/>
<stop offset="0.510417" stop-color="#FFCE6F"/>
<stop offset="1" stop-color="#FFA800"/>
</linearGradient>
<linearGradient id="paint6_linear_0_355" x1="10.0709" y1="42.2053" x2="10.0709" y2="47.6011" gradientUnits="userSpaceOnUse">
<stop stop-color="#FFA800"/>
<stop offset="0.510417" stop-color="#FFCE6F"/>
<stop offset="1" stop-color="#FFA800"/>
</linearGradient>
<linearGradient id="paint7_linear_0_355" x1="25.0063" y1="44.3068" x2="25.0063" y2="50" gradientUnits="userSpaceOnUse">
<stop stop-color="#FFA800"/>
<stop offset="0.510417" stop-color="#FFCE6F"/>
<stop offset="1" stop-color="#FFA800"/>
</linearGradient>
<linearGradient id="paint8_linear_0_355" x1="39.9459" y1="42.2052" x2="39.9459" y2="47.6011" gradientUnits="userSpaceOnUse">
<stop stop-color="#FFA800"/>
<stop offset="0.510417" stop-color="#FFCE6F"/>
<stop offset="1" stop-color="#FFA800"/>
</linearGradient>
<linearGradient id="paint9_linear_0_355" x1="46.3041" y1="27.7749" x2="46.3041" y2="31.4146" gradientUnits="userSpaceOnUse">
<stop stop-color="#FFA800"/>
<stop offset="0.510417" stop-color="#FFCE6F"/>
<stop offset="1" stop-color="#FFA800"/>
</linearGradient>
<clipPath id="clip0_0_355">
<rect width="50" height="50" fill="white"/>
</clipPath>
</defs>
</svg>
