<svg width="50" height="50" viewBox="0 0 50 50" fill="none" xmlns="http://www.w3.org/2000/svg">
<path d="M32.5512 24.9328L32.5507 24.9255C32.5476 24.8868 32.5246 24.8189 32.455 24.7535C32.3853 24.6882 32.3161 24.6696 32.2773 24.669L26.3717 24.5784C26.3717 24.5784 26.3716 24.5784 26.3716 24.5784C25.7798 24.5694 25.2785 24.3155 24.9304 24.0132C24.5822 23.7108 24.2607 23.2501 24.1688 22.6655L32.5512 24.9328ZM32.5512 24.9328L32.5519 24.94L32.5523 24.9443C32.5538 24.9689 32.5503 24.9852 32.5468 24.9957C32.5432 25.0065 32.5368 25.0193 32.5234 25.0343L32.5233 25.0345C32.5098 25.0496 32.4978 25.0575 32.4875 25.0623C32.477 25.0672 32.4604 25.0727 32.4341 25.0737L32.434 25.0737L24.3984 25.3711L22.9376 25.4252L22.954 26.8869L22.9754 28.7907L22.9784 29.0593L23.0744 29.3102L26.5319 38.3409C26.7444 38.896 26.9737 39.8654 27.0324 40.4568C27.0324 40.4568 27.0324 40.4568 27.0324 40.4568L27.8115 48.3112L27.8115 48.3114C27.8189 48.386 27.7988 48.4214 27.7758 48.447C27.7531 48.4721 27.7202 48.4958 27.6446 48.4961L26.5212 48.5C26.5207 48.5 26.5201 48.5 26.5196 48.5C26.3363 48.4989 26.1229 48.3073 26.1025 48.1263L26.1025 48.1262L25.3566 41.5199L25.3565 41.5197C25.3059 41.0712 25.1655 40.5721 25.0122 40.1466C24.8589 39.7211 24.6487 39.2471 24.4017 38.8694L24.4017 38.8694L20.5431 32.9686L18.6406 30.0591L17.8291 33.4393L16.2347 40.081C16.2347 40.0811 16.2347 40.0811 16.2347 40.0812C16.0949 40.6632 15.744 41.6372 15.4805 42.174L15.4805 42.1741L12.6549 47.9337C12.5807 48.0849 12.3551 48.2481 12.0999 48.2481C12.0606 48.2481 12.0281 48.2435 12.0035 48.2374L12.0031 48.2372L11.0137 47.9917C11.0136 47.9917 11.0135 47.9917 11.0135 47.9916C10.9655 47.9797 10.9461 47.9615 10.9405 47.955C10.9388 47.9466 10.9364 47.9203 10.9563 47.8754L10.9564 47.8752L13.929 41.147L13.929 41.1469C14.2477 40.4255 14.5269 39.2655 14.5714 38.478L14.5714 38.4779L14.8284 33.9287L14.8284 33.9286C14.8502 33.5419 14.8668 28.7052 14.8791 24.0717C14.8854 21.7313 14.8904 19.4117 14.8939 17.6774L14.8979 15.5851L14.8989 15.0003L14.8992 14.8464L14.8993 14.8069L14.8993 14.7969L14.8993 14.7944L14.8993 14.7938C14.8993 14.7936 14.8993 14.7936 13.3993 14.791L14.8993 14.7936V14.791C14.8993 14.6287 14.9208 14.5409 14.9328 14.5047C14.969 14.49 15.0544 14.4641 15.2185 14.4569L15.2186 14.4569L22.524 14.1388C22.6804 14.142 22.7463 14.1726 22.7595 14.1791C22.774 14.1863 22.782 14.1928 22.7932 14.2072C22.8086 14.227 22.8274 14.2601 22.844 14.306C22.8601 14.3505 22.8664 14.3858 22.8676 14.3931C22.8676 14.3931 22.8676 14.3931 22.8676 14.3932C22.8676 14.3932 22.8676 14.3932 22.8676 14.3932L24.1688 22.6654L32.5512 24.9328ZM22.4974 12.6385L15.1533 12.9583L22.4974 12.6385Z" stroke="url(#paint0_linear_0_371)" stroke-width="3"/>
<path d="M18.8171 9.16531L18.8176 9.16511C19.8136 8.81267 20.6066 8.09884 21.0615 7.14518L21.0616 7.14516C21.3839 6.46943 21.5036 5.73968 21.4236 5.02047L21.258 3.53203L22.7462 3.36413L24.5694 3.15844C24.5694 3.15844 24.5694 3.15843 24.5695 3.15842C24.5707 3.15815 24.5849 3.15538 24.6105 3.14418C24.6422 3.13034 24.6804 3.10829 24.7192 3.07786C24.7579 3.04743 24.7883 3.01552 24.8093 2.98804C24.8269 2.96481 24.8327 2.95152 24.8328 2.95154L25.1963 1.95862L20.635 2.39247L20.109 2.4425L19.6678 2.15188C19.0356 1.73543 18.2867 1.5 17.5004 1.5C17.0544 1.5 16.6126 1.57576 16.1844 1.72719L18.8171 9.16531ZM18.8171 9.16531C18.3893 9.31686 17.9473 9.39276 17.501 9.39276C15.8354 9.39276 14.3387 8.33509 13.7819 6.76272L13.7818 6.76264M18.8171 9.16531L13.7818 6.76264M13.7818 6.76264C13.4292 5.76694 13.485 4.70148 13.94 3.74779C14.3951 2.79414 15.188 2.08016 16.1839 1.72735L13.7818 6.76264Z" stroke="url(#paint1_linear_0_371)" stroke-width="3"/>
<path d="M39.0596 19.5196L39.0596 19.5195L38.5346 11.9732C38.5346 11.9732 38.5346 11.9731 38.5346 11.9731C38.5318 11.934 38.5108 11.874 38.4504 11.8178C38.3904 11.7619 38.3283 11.7439 38.2862 11.7438C38.286 11.7438 38.2858 11.7438 38.2856 11.7438L28.2006 11.7613L28.2006 11.7613C28.1737 11.7614 28.1588 11.7664 28.1519 11.7694C28.1452 11.7723 28.1371 11.777 28.1268 11.7881L39.0596 19.5196ZM39.0596 19.5196C39.0615 19.5464 39.0575 19.5617 39.055 19.5689M39.0596 19.5196L39.055 19.5689M28.1055 11.8632L28.1055 11.8637L28.6305 19.41C28.6305 19.41 28.6305 19.4101 28.6305 19.4101C28.6333 19.4493 28.6544 19.5096 28.715 19.566C28.7752 19.6222 28.8365 19.6392 28.8758 19.6394C28.8761 19.6394 28.8763 19.6394 28.8765 19.6394L38.9645 19.6219H38.9646C38.9916 19.6218 39.0065 19.6168 39.0134 19.6138L28.1055 11.8632ZM28.1055 11.8632C28.1036 11.8366 28.1075 11.8214 28.11 11.8144M28.1055 11.8632L28.11 11.8144M28.11 11.8144C28.1124 11.8076 28.1166 11.7991 28.1268 11.7881L28.11 11.8144ZM39.055 19.5689C39.0526 19.5759 39.0484 19.5843 39.0383 19.5952L39.055 19.5689Z" stroke="url(#paint2_linear_0_371)" stroke-width="3"/>
<defs>
<linearGradient id="paint0_linear_0_371" x1="21.746" y1="12.6385" x2="21.746" y2="50" gradientUnits="userSpaceOnUse">
<stop stop-color="#FFA800"/>
<stop offset="0.520833" stop-color="#FFCE6F"/>
<stop offset="1" stop-color="#FFA800"/>
</linearGradient>
<linearGradient id="paint1_linear_0_371" x1="19.4913" y1="0" x2="19.4913" y2="10.8928" gradientUnits="userSpaceOnUse">
<stop stop-color="#FFA800"/>
<stop offset="0.520833" stop-color="#FFCE6F"/>
<stop offset="1" stop-color="#FFA800"/>
</linearGradient>
<linearGradient id="paint2_linear_0_371" x1="33.5825" y1="10.2438" x2="33.5825" y2="21.1394" gradientUnits="userSpaceOnUse">
<stop stop-color="#FFA800"/>
<stop offset="0.520833" stop-color="#FFCE6F"/>
<stop offset="1" stop-color="#FFA800"/>
</linearGradient>
</defs>
</svg>
