<svg width="40" height="40" viewBox="0 0 40 40" fill="none" xmlns="http://www.w3.org/2000/svg">
<path d="M9.00535 11.9734H3.1384C2.04582 14.2693 1.4373 16.7655 1.35059 19.3067H8.01043C8.05168 16.8316 8.38566 14.37 9.00535 11.9734Z" fill="white"/>
<path d="M14.6271 2.09839C10.0805 3.47651 6.22676 6.5294 3.84473 10.64H9.39152C10.56 6.96565 12.3952 3.96972 14.6271 2.09839Z" fill="white"/>
<path d="M9.00535 27.9733C8.38559 25.5766 8.05168 23.115 8.01051 20.6399H1.35059C1.4373 23.1811 2.04582 25.6772 3.1384 27.9733H9.00535Z" fill="white"/>
<path d="M9.3916 29.3066H3.84473C6.22676 33.4172 10.0805 36.4701 14.6271 37.8482C12.3952 35.977 10.56 32.9809 9.3916 29.3066Z" fill="white"/>
<path d="M30.6086 10.64H36.1554C33.7734 6.5294 29.9196 3.47651 25.373 2.09839C27.6049 3.96972 29.4401 6.96565 30.6086 10.64Z" fill="white"/>
<path d="M29.6357 11.9734H20.667V19.3067H30.6574C30.617 16.8298 30.2739 14.3671 29.6357 11.9734Z" fill="white"/>
<path d="M19.3335 38.5998V29.3066H10.7686C12.5107 34.5634 15.6743 38.2027 19.3335 38.5998Z" fill="white"/>
<path d="M20.667 1.34668V10.6399H29.2319C27.4898 5.38309 24.3262 1.74387 20.667 1.34668Z" fill="white"/>
<path d="M30.6574 20.6399H20.667V27.9732H29.6357C30.2739 25.5795 30.617 23.1168 30.6574 20.6399Z" fill="white"/>
<path d="M25.373 37.8482C29.9196 36.4701 33.7734 33.4172 36.1554 29.3066H30.6086C29.4401 32.9809 27.6049 35.977 25.373 37.8482Z" fill="white"/>
<path d="M30.9951 27.9733H36.8621C37.9546 25.6773 38.5632 23.1811 38.6499 20.6399H31.99C31.9488 23.115 31.6149 25.5766 30.9951 27.9733Z" fill="white"/>
<path d="M20.667 29.3066V38.5998C24.3262 38.2027 27.4897 34.5634 29.2319 29.3066H20.667Z" fill="white"/>
<path d="M30.9951 11.9734C31.6149 14.37 31.9488 16.8316 31.99 19.3067H38.6498C38.5631 16.7656 37.9546 14.2694 36.862 11.9734H30.9951Z" fill="white"/>
<path d="M10.7686 10.6399H19.3335V1.34668C15.6743 1.74387 12.5107 5.38309 10.7686 10.6399Z" fill="white"/>
<path d="M10.3643 27.9733H19.333V20.6399H9.34277C9.38309 23.1169 9.72621 25.5796 10.3643 27.9733Z" fill="white"/>
<path d="M9.34277 19.3067H19.3331V11.9734H10.3643C9.72621 14.3671 9.38309 16.8298 9.34277 19.3067Z" fill="white"/>
<path d="M39.6529 2.72L38.0996 1.87328L37.2529 0.32C37.1245 0.120547 36.9035 0 36.6663 0C36.429 0 36.2081 0.120547 36.0796 0.32L35.233 1.87336L33.6796 2.72C33.4658 2.83773 33.333 3.06258 33.333 3.30664C33.333 3.55078 33.4658 3.77555 33.6796 3.89328L35.233 4.73992L36.0796 6.29328C36.1974 6.50711 36.4222 6.64 36.6663 6.64C36.9104 6.64 37.1352 6.50719 37.2529 6.29328L38.0996 4.73992L39.6529 3.89328C39.8667 3.77539 39.9995 3.5507 39.9996 3.30664C39.9994 3.06258 39.8667 2.83781 39.6529 2.72Z" fill="white"/>
<path d="M6.32 36.0533L4.76664 35.2066L3.92 33.6533C3.79156 33.4538 3.57055 33.3333 3.33336 33.3333C3.09609 33.3333 2.87516 33.4538 2.74672 33.6533L1.9 35.2066L0.346641 36.0533C0.132812 36.1711 0 36.3958 0 36.64C0 36.8841 0.132812 37.1089 0.346641 37.2266L1.9 38.0733L2.74664 39.6266C2.86438 39.8404 3.08922 39.9733 3.33328 39.9733C3.57742 39.9733 3.80219 39.8405 3.91992 39.6266L4.76656 38.0733L6.31992 37.2266C6.53367 37.1087 6.66648 36.884 6.66656 36.64C6.66656 36.3958 6.53375 36.1711 6.32 36.0533Z" fill="white"/>
</svg>
